<svg width="17" height="17" version="1.1" viewBox="0 0 16 16" xmlns="http://www.w3.org/2000/svg">
 <g fill="white">
  <path d="m8 1-3.5 4h-2.63s-0.87 0.893-0.87 3.001c0 2.109 0.87 2.999 0.87 2.999h2.63l3.5 4z"/>
  <path d="M10.524 4.926l-.707.707.354.354a2.999 2.999 0 0 1 0 4.242l-.354.353.707.707.354-.353a4 4 0 0 0 0-5.656z" font-family="sans-serif" font-weight="400" overflow="visible" white-space="normal"/>
  <path d="M12.645 2.805l-.707.707.354.353a5.999 5.999 0 0 1 0 8.485l-.354.353.707.707.354-.353a7 7 0 0 0 0-9.899z" font-family="sans-serif" font-weight="400" overflow="visible" white-space="normal"/>
 </g>
</svg>
