<svg xmlns="http://www.w3.org/2000/svg" width="1em" height="1em" viewBox="0 0 24 24">
	<path fill="white" d="M19.62 2.725H4.39A2.37 2.37 0 0 0 2 5.065v2.12a2.38 2.38 0 0 0 1.64 2.29v7.86a3.9 3.9 0 0 0 1.18 2.79a4 4 0 0 0 2.83 1.15h8.71a4 4 0 0 0 2.83-1.15a3.9 3.9 0 0 0 1.18-2.79v-7.86A2.38 2.38 0 0 0 22 7.235v-2.12a2.361 2.361 0 0 0-2.38-2.39m-4.79 11.88a.741.741 0 0 1-.53.22a.712.712 0 0 1-.53-.22l-1-1v3.38a.75.75 0 1 1-1.5 0v-3.38l-1 1a.75.75 0 0 1-1.06-1.06l2-2c.11-.112.244-.2.39-.26a1.11 1.11 0 0 1 .3-.08a.86.86 0 0 1 .32 0c.107.011.211.038.31.08c.145.062.277.15.39.26l2 2a.75.75 0 0 1-.09 1.06m5.67-7.42a.861.861 0 0 1-.88.85H4.39a.87.87 0 0 1-.89-.85v-2.12a.86.86 0 0 1 .89-.84h15.23a.85.85 0 0 1 .88.84z" />
</svg>