<?xml version="1.0" encoding="UTF-8"?>
<!DOCTYPE svg PUBLIC "-//W3C//DTD SVG 1.1//EN" "http://www.w3.org/Graphics/SVG/1.1/DTD/svg11.dtd">
<svg xmlns="http://www.w3.org/2000/svg" version="1.1" width="96px" height="96px" style="shape-rendering:geometricPrecision; text-rendering:geometricPrecision; image-rendering:optimizeQuality; fill-rule:evenodd; clip-rule:evenodd" xmlns:xlink="http://www.w3.org/1999/xlink">
<g><path style="opacity:0.924" fill="currentColor" d="M 23.5,23.5 C 26.8499,23.335 30.1832,23.5017 33.5,24C 38.0148,28.6819 42.6815,33.1819 47.5,37.5C 51.9851,33.5154 56.3184,29.3487 60.5,25C 64.0257,23.6632 67.6924,23.1632 71.5,23.5C 71.665,26.8499 71.4983,30.1832 71,33.5C 66.3181,38.0148 61.8181,42.6815 57.5,47.5C 61.8181,52.3185 66.3181,56.9852 71,61.5C 71.4983,64.8168 71.665,68.1501 71.5,71.5C 68.1501,71.665 64.8168,71.4983 61.5,71C 56.9852,66.3181 52.3185,61.8181 47.5,57.5C 42.6815,61.8181 38.0148,66.3181 33.5,71C 30.1832,71.4983 26.8499,71.665 23.5,71.5C 23.335,68.1501 23.5017,64.8168 24,61.5C 28.6819,56.9852 33.1819,52.3185 37.5,47.5C 33.1819,42.6815 28.6819,38.0148 24,33.5C 23.5017,30.1832 23.335,26.8499 23.5,23.5 Z"/></g>
</svg>
