<svg xmlns="http://www.w3.org/2000/svg" version="1.1" width="96px" height="96px"
  style="shape-rendering:geometricPrecision; text-rendering:geometricPrecision; image-rendering:optimizeQuality; fill-rule:evenodd; clip-rule:evenodd"
  xmlns:xlink="http://www.w3.org/1999/xlink">
  <g>
    <defs>
      <linearGradient id="gradient" x1="0%" y1="0%" x2="100%" y2="100%">
        <stop offset="20%" style="stop-color:#862232" />
        <stop offset="50%" style="stop-color:#be5264" />
      </linearGradient>
    </defs>

    <path style="opacity:1" fill="url(#gradient)"
      d="M 26.5,5.5 C 26.8333,6.16667 27.1667,6.83333 27.5,7.5C 24.5,7.5 21.5,7.5 18.5,7.5C 15.2869,7.19 12.2869,7.52333 9.5,8.5C 5.59881,9.39996 2.93215,11.7333 1.5,15.5C 1.86537,11.2629 3.86537,8.09624 7.5,6C 13.8246,5.50046 20.1579,5.33379 26.5,5.5 Z
      M 18.5,7.5 C 21.5,7.5 24.5,7.5 27.5,7.5C 28.5,7.5 29.5,7.5 30.5,7.5C 34.5271,12.1938 38.8604,16.5271 43.5,20.5C 42.8333,21.8333 41.8333,22.8333 40.5,23.5C 37.8333,23.5 35.1667,23.5 32.5,23.5C 27.4382,18.4431 22.7715,13.1098 18.5,7.5 Z
      M 9.5,8.5 C 12.2869,7.52333 15.2869,7.19 18.5,7.5C 22.7715,13.1098 27.4382,18.4431 32.5,23.5C 30.1432,23.6633 27.8098,23.4966 25.5,23C 20.2576,17.9542 14.9243,13.1209 9.5,8.5 Z
      M 9.5,8.5 C 14.9243,13.1209 20.2576,17.9542 25.5,23C 27.8098,23.4966 30.1432,23.6633 32.5,23.5C 35.1667,23.5 37.8333,23.5 40.5,23.5C 40.3893,24.1174 40.056,24.6174 39.5,25C 33.1754,25.4995 26.8421,25.6662 20.5,25.5C 20.3893,24.8826 20.056,24.3826 19.5,24C 16.1667,23.6667 12.8333,23.3333 9.5,23C 7.33333,20.8333 5.16667,18.6667 3,16.5C 2.76791,17.7375 2.26791,18.7375 1.5,19.5C 1.5,18.1667 1.5,16.8333 1.5,15.5C 2.93215,11.7333 5.59881,9.39996 9.5,8.5 Z
      M 26.5,5.5 C 30.8461,5.33432 35.1794,5.50098 39.5,6C 41.1667,7.66667 42.8333,9.33333 44.5,11C 50.4908,11.4995 56.4908,11.6662 62.5,11.5C 62.8333,12.1667 63.1667,12.8333 63.5,13.5C 56.825,13.6663 50.1583,13.4996 43.5,13C 40.5082,8.07738 36.1749,6.24405 30.5,7.5C 29.5,7.5 28.5,7.5 27.5,7.5C 27.1667,6.83333 26.8333,6.16667 26.5,5.5 Z
      M 62.5,11.5 C 70.84,11.3336 79.1733,11.5003 87.5,12C 90.3229,12.9916 92.3229,14.8249 93.5,17.5C 91.5168,16.5294 89.5168,15.5294 87.5,14.5C 80.5352,13.6591 73.5352,13.3257 66.5,13.5C 65.5,13.5 64.5,13.5 63.5,13.5C 63.1667,12.8333 62.8333,12.1667 62.5,11.5 Z
      M 30.5,7.5 C 36.1749,6.24405 40.5082,8.07738 43.5,13C 50.1583,13.4996 56.825,13.6663 63.5,13.5C 64.5,13.5 65.5,13.5 66.5,13.5C 67.2899,14.7942 68.2899,15.9609 69.5,17C 67.3808,17.3418 67.0474,18.1751 68.5,19.5C 60.0817,19.1981 51.7483,19.5314 43.5,20.5C 38.8604,16.5271 34.5271,12.1938 30.5,7.5 Z
      M 66.5,13.5 C 73.5352,13.3257 80.5352,13.6591 87.5,14.5C 87.33,15.8221 87.6634,16.9887 88.5,18C 87.9558,18.7172 87.2891,19.2172 86.5,19.5C 80.5,19.5 74.5,19.5 68.5,19.5C 67.0474,18.1751 67.3808,17.3418 69.5,17C 68.2899,15.9609 67.2899,14.7942 66.5,13.5 Z
      M 87.5,14.5 C 89.5168,15.5294 91.5168,16.5294 93.5,17.5C 94.3021,24.8042 94.6354,32.1375 94.5,39.5C 93.7798,35.2703 93.1132,30.937 92.5,26.5C 91.2128,23.5468 89.2128,21.2135 86.5,19.5C 87.2891,19.2172 87.9558,18.7172 88.5,18C 87.6634,16.9887 87.33,15.8221 87.5,14.5 Z
      M 20.5,25.5 C 16.4862,25.3345 12.4862,25.5012 8.5,26C 5.59136,27.4055 3.59136,29.5722 2.5,32.5C 2.16667,32.5 1.83333,32.5 1.5,32.5C 1.5,28.1667 1.5,23.8333 1.5,19.5C 2.26791,18.7375 2.76791,17.7375 3,16.5C 5.16667,18.6667 7.33333,20.8333 9.5,23C 12.8333,23.3333 16.1667,23.6667 19.5,24C 20.056,24.3826 20.3893,24.8826 20.5,25.5 Z">
    </path>
  </g>


  <g>
    <path style="opacity:1" fill="#8b8889"
      d="M 68.5,19.5 C 74.5,19.5 80.5,19.5 86.5,19.5C 89.2128,21.2135 91.2128,23.5468 92.5,26.5C 87.7875,22.0407 82.1208,20.3741 75.5,21.5C 65.1613,21.3335 54.828,21.5002 44.5,22C 42.8333,23.6667 41.1667,25.3333 39.5,27C 28.4424,27.0933 17.4424,27.76 6.5,29C 4.95855,30.7705 3.62522,31.9371 2.5,32.5C 3.59136,29.5722 5.59136,27.4055 8.5,26C 12.4862,25.5012 16.4862,25.3345 20.5,25.5C 26.8421,25.6662 33.1754,25.4995 39.5,25C 40.056,24.6174 40.3893,24.1174 40.5,23.5C 41.8333,22.8333 42.8333,21.8333 43.5,20.5C 51.7483,19.5314 60.0817,19.1981 68.5,19.5 Z" />
  </g>
  <g>
    <path style="opacity:1" fill="#6d6d6d"
      d="M 75.5,21.5 C 59.1911,43.4816 42.8578,65.4816 26.5,87.5C 20.4908,87.6662 14.4908,87.4995 8.5,87C 6.26569,85.2502 3.93236,83.7502 1.5,82.5C 1.5,65.8333 1.5,49.1667 1.5,32.5C 1.83333,32.5 2.16667,32.5 2.5,32.5C 3.62522,31.9371 4.95855,30.7705 6.5,29C 17.4424,27.76 28.4424,27.0933 39.5,27C 41.1667,25.3333 42.8333,23.6667 44.5,22C 54.828,21.5002 65.1613,21.3335 75.5,21.5 Z" />
  </g>
  <g>
    <path style="opacity:1" fill="#737373"
      d="M 75.5,21.5 C 82.1208,20.3741 87.7875,22.0407 92.5,26.5C 93.1132,30.937 93.7798,35.2703 94.5,39.5C 94.8288,52.6774 94.4955,65.6774 93.5,78.5C 93.6658,73.8215 93.4992,69.1548 93,64.5C 85.2715,72.3965 77.4382,80.0631 69.5,87.5C 55.1667,87.5 40.8333,87.5 26.5,87.5C 42.8578,65.4816 59.1911,43.4816 75.5,21.5 Z" />
  </g>
  <g>
    <path style="opacity:1" fill="#7d7d7d"
      d="M 93.5,78.5 C 93.5,79.1667 93.5,79.8333 93.5,80.5C 92.3135,83.3397 90.3135,85.5064 87.5,87C 81.5092,87.4995 75.5092,87.6662 69.5,87.5C 77.4382,80.0631 85.2715,72.3965 93,64.5C 93.4992,69.1548 93.6658,73.8215 93.5,78.5 Z" />
  </g>
  <g>
    <path style="opacity:0.092" fill="#000000"
      d="M 2.5,85.5 C 4.01027,86.8361 5.67694,88.0027 7.5,89C 34.1667,89.6667 60.8333,89.6667 87.5,89C 88.745,88.2086 90.0783,87.7086 91.5,87.5C 90.8777,89.335 89.5444,90.5017 87.5,91C 60.8333,91.6667 34.1667,91.6667 7.5,91C 4.92096,89.9243 3.25429,88.091 2.5,85.5 Z" />
  </g>
  <g>
    <path style="opacity:0.997" fill="#595959"
      d="M 93.5,80.5 C 93.8294,83.2282 93.1628,85.5615 91.5,87.5C 90.0783,87.7086 88.745,88.2086 87.5,89C 60.8333,89.6667 34.1667,89.6667 7.5,89C 5.67694,88.0027 4.01027,86.8361 2.5,85.5C 1.89022,84.609 1.55688,83.609 1.5,82.5C 3.93236,83.7502 6.26569,85.2502 8.5,87C 14.4908,87.4995 20.4908,87.6662 26.5,87.5C 40.8333,87.5 55.1667,87.5 69.5,87.5C 75.5092,87.6662 81.5092,87.4995 87.5,87C 90.3135,85.5064 92.3135,83.3397 93.5,80.5 Z" />
  </g>
</svg>
