<svg xmlns="http://www.w3.org/2000/svg" width="128" height="128" viewBox="0 0 128 128">
	<defs>
		<radialGradient id="SVGlpRyscyp" cx="0" cy="0" r="1" gradientTransform="matrix(0 69.41526 -65.63115 0 64.122 58.517)" gradientUnits="userSpaceOnUse">
			<stop stop-color="#aa1bb6" />
			<stop offset="1" stop-color="#452070" />
		</radialGradient>
		<radialGradient id="SVGrfrZjcpj" cx="0" cy="0" r="1" gradientTransform="rotate(26.565 -99.675 166.484)scale(48.04392 42.87336)" gradientUnits="userSpaceOnUse">
			<stop offset=".271" stop-color="#b1219b" />
			<stop offset="1" stop-color="#5306a1" />
		</radialGradient>
	</defs>
	<path fill="url(#SVGlpRyscyp)" d="m124.511 21.34l-4.37 68.567L78.36 0ZM95.571 110l-31.57 18l-31.572-18l1.784-10.49H93.79ZM7.814 89.908L3.49 21.341L49.64 0Z" />
	<path fill="url(#SVGrfrZjcpj)" fill-rule="evenodd" d="m93.64 55.49l-.004.031q-2.77 16.15-21.436 20.42c3.078 2.156 6.671 2.74 10.832 1.763c-7.769 2.88-14.623 2.987-20.58.345c1.048 3.71 3.505 6.386 7.41 8.069c-9.679-2.079-16.026-8.781-19.027-20.102c-1.533 2.022-1.417 5.394.34 10.172c-5.24-6.345-6.218-13.015-2.91-19.993q5.198-11.506 18.892-9.219C79.55 60.574 87.54 64.545 91.09 58.873c1.554-4.851-.043-10.82-4.8-17.883c-3.417-4.825-7.44-8.21-12.036-10.099c-.941-2.67-2.615-4.541-4.965-5.52c-1.636-.763-3.15-.912-4.475-.373a40 40 0 0 0-.643.271c-2.11.903-5.614 2.404-9.516.922q-4.33-1.645-6.08 2.109q-1.723 3.848-2.308 4.18c-.594.462-1.857.945-3.778 1.44q-2.881.744-3.615 2.294q-1.353 3.285-.98 5.303c-.433 1.668-1.13 2.795-2.087 3.354a29 29 0 0 1-.635.357c-1.004.554-1.507.831-1.758 2.014l-.02.096c-.286 1.331-.38 1.772.99 6.212c-.894 6.586.192 12.93 3.258 19.006c-.004-.008 4.287 10.709 16.091 16.295q18.755 7.755 33.397-5.498c-5.783 1.166-10.04 1.246-12.75.258c10.307-.752 17.052-5.777 20.27-15.07c-4.286 3.31-7.604 5.239-9.934 5.758c3.99-2.542 6.72-5.475 8.21-8.774q2.232-4.95.716-10.034zM77.909 41.82c-.942 1.216-2.193 4.045.333 5.637s1.4-.4.522-1.596c-.878-1.195-.855-4.041-.855-4.041" clip-rule="evenodd" />
</svg>
