<?xml version="1.0" encoding="UTF-8"?>
<!DOCTYPE svg PUBLIC "-//W3C//DTD SVG 1.1//EN" "http://www.w3.org/Graphics/SVG/1.1/DTD/svg11.dtd">
<svg xmlns="http://www.w3.org/2000/svg" version="1.1" width="256px" height="256px" style="shape-rendering:geometricPrecision; text-rendering:geometricPrecision; image-rendering:optimizeQuality; fill-rule:evenodd; clip-rule:evenodd" xmlns:xlink="http://www.w3.org/1999/xlink">
<g><path style="opacity:0.045" fill="#000000" d="M 60.5,7.5 C 102.168,7.33334 143.835,7.50001 185.5,8C 198.411,7.08947 209.244,11.2561 218,20.5C 220.752,25.8382 222.418,31.5049 223,37.5C 223.55,75.8522 222.883,114.186 221,152.5C 220.442,162.574 219.275,172.574 217.5,182.5C 217.667,184.167 217.833,185.833 218,187.5C 220.442,190.048 222.108,193.048 223,196.5C 225.42,209.022 224.754,221.355 221,233.5C 217.267,241.3 211.1,246.134 202.5,248C 192.17,249.959 181.837,249.959 171.5,248C 168.048,247.108 165.048,245.442 162.5,243C 160.833,242.833 159.167,242.667 157.5,242.5C 124.314,246.929 90.9808,248.429 57.5,247C 41.4443,244.941 32.9443,235.775 32,219.5C 30.5212,158.84 30.1878,98.1736 31,37.5C 32.334,19.0001 42.1673,9.0001 60.5,7.5 Z"/></g>
<g><path style="opacity:1" fill="#efefef" d="M 215.5,127.5 C 199.5,127.5 183.5,127.5 167.5,127.5C 176.812,117.854 186.145,108.187 195.5,98.5C 192.814,96.1442 190.147,93.8109 187.5,91.5C 183.833,87.5 180.167,83.5 176.5,79.5C 174.063,77.567 171.729,75.4003 169.5,73C 168.5,72.3333 167.5,72.3333 166.5,73C 150.632,89.0351 134.632,104.868 118.5,120.5C 112.021,119.509 105.354,119.176 98.5,119.5C 107.561,114.802 116.894,110.469 126.5,106.5C 127.499,94.8523 127.832,83.1857 127.5,71.5C 151.5,71.5 175.5,71.5 199.5,71.5C 199.5,68.8333 199.5,66.1667 199.5,63.5C 175.5,63.5 151.5,63.5 127.5,63.5C 127.5,60.8333 127.5,58.1667 127.5,55.5C 132.833,55.5 138.167,55.5 143.5,55.5C 143.5,52.8333 143.5,50.1667 143.5,47.5C 138.167,47.5 132.833,47.5 127.5,47.5C 127.334,39.8261 127.5,32.1594 128,24.5C 132.732,22.1432 137.566,19.9766 142.5,18C 114.833,17.3333 87.1667,17.3333 59.5,18C 55.6066,18.4645 51.9399,19.6312 48.5,21.5C 47.8933,21.3764 47.56,21.0431 47.5,20.5C 50.534,17.7585 54.2007,16.2585 58.5,16C 104.5,15.3333 150.5,15.3333 196.5,16C 208,16.8333 214.167,23 215,34.5C 215.5,65.4982 215.667,96.4982 215.5,127.5 Z"/></g>
<g><path style="opacity:1" fill="#eaeaea" d="M 127.5,47.5 C 103.5,47.5 79.5,47.5 55.5,47.5C 55.5,50.1667 55.5,52.8333 55.5,55.5C 79.5,55.5 103.5,55.5 127.5,55.5C 127.5,58.1667 127.5,60.8333 127.5,63.5C 103.5,63.5 79.5,63.5 55.5,63.5C 55.5,66.1667 55.5,68.8333 55.5,71.5C 79.5,71.5 103.5,71.5 127.5,71.5C 127.832,83.1857 127.499,94.8523 126.5,106.5C 116.894,110.469 107.561,114.802 98.5,119.5C 84.1667,119.5 69.8333,119.5 55.5,119.5C 55.5,122.167 55.5,124.833 55.5,127.5C 50.1667,127.5 44.8333,127.5 39.5,127.5C 39.3334,96.4982 39.5,65.4982 40,34.5C 40.2174,28.3858 42.7174,23.7191 47.5,20.5C 47.56,21.0431 47.8933,21.3764 48.5,21.5C 51.9399,19.6312 55.6066,18.4645 59.5,18C 87.1667,17.3333 114.833,17.3333 142.5,18C 137.566,19.9766 132.732,22.1432 128,24.5C 127.5,32.1594 127.334,39.8261 127.5,47.5 Z"/></g>
<g><path style="opacity:1" fill="#c7c4b6" d="M 127.5,47.5 C 132.833,47.5 138.167,47.5 143.5,47.5C 143.5,50.1667 143.5,52.8333 143.5,55.5C 138.167,55.5 132.833,55.5 127.5,55.5C 103.5,55.5 79.5,55.5 55.5,55.5C 55.5,52.8333 55.5,50.1667 55.5,47.5C 79.5,47.5 103.5,47.5 127.5,47.5 Z"/></g>
<g><path style="opacity:1" fill="#c7c4b6" d="M 127.5,63.5 C 151.5,63.5 175.5,63.5 199.5,63.5C 199.5,66.1667 199.5,68.8333 199.5,71.5C 175.5,71.5 151.5,71.5 127.5,71.5C 103.5,71.5 79.5,71.5 55.5,71.5C 55.5,68.8333 55.5,66.1667 55.5,63.5C 79.5,63.5 103.5,63.5 127.5,63.5 Z"/></g>
<g><path style="opacity:1" fill="#5e87f3" d="M 176.5,79.5 C 175.761,79.369 175.094,79.5357 174.5,80C 146.299,108.368 117.965,136.535 89.5,164.5C 89.7407,160.981 88.4074,158.315 85.5,156.5C 86.075,154.589 87.075,152.922 88.5,151.5C 90.8333,148.833 93.1667,146.167 95.5,143.5C 101.167,138.5 106.5,133.167 111.5,127.5C 114.167,125.5 116.5,123.167 118.5,120.5C 134.632,104.868 150.632,89.0351 166.5,73C 167.5,72.3333 168.5,72.3333 169.5,73C 171.729,75.4003 174.063,77.567 176.5,79.5 Z"/></g>
<g><path style="opacity:1" fill="#c8c4b7" d="M 55.5,79.5 C 76.5,79.5 97.5,79.5 118.5,79.5C 118.5,82.1667 118.5,84.8333 118.5,87.5C 97.5,87.5 76.5,87.5 55.5,87.5C 55.5,84.8333 55.5,82.1667 55.5,79.5 Z"/></g>
<g><path style="opacity:1" fill="#2f5fdc" d="M 176.5,79.5 C 180.167,83.5 183.833,87.5 187.5,91.5C 159.201,119.298 131.035,147.298 103,175.5C 102.802,173.618 102.302,171.952 101.5,170.5C 100.723,167.888 99.0559,166.055 96.5,165C 93.937,164.874 91.6036,164.707 89.5,164.5C 117.965,136.535 146.299,108.368 174.5,80C 175.094,79.5357 175.761,79.369 176.5,79.5 Z"/></g>
<g><path style="opacity:1" fill="#2d51b9" d="M 187.5,91.5 C 190.147,93.8109 192.814,96.1442 195.5,98.5C 186.145,108.187 176.812,117.854 167.5,127.5C 159.167,135.167 151.167,143.167 143.5,151.5C 140.5,153.833 137.833,156.5 135.5,159.5C 132.5,161.833 129.833,164.5 127.5,167.5C 124.5,169.833 121.833,172.5 119.5,175.5C 117.167,177.5 114.833,179.5 112.5,181.5C 111.833,181.5 111.167,181.5 110.5,181.5C 108.416,178.294 105.416,176.961 101.5,177.5C 101.5,175.167 101.5,172.833 101.5,170.5C 102.302,171.952 102.802,173.618 103,175.5C 131.035,147.298 159.201,119.298 187.5,91.5 Z"/></g>
<g><path style="opacity:1" fill="#c8c4b7" d="M 55.5,95.5 C 76.5,95.5 97.5,95.5 118.5,95.5C 118.5,98.1667 118.5,100.833 118.5,103.5C 97.5,103.5 76.5,103.5 55.5,103.5C 55.5,100.833 55.5,98.1667 55.5,95.5 Z"/></g>
<g><path style="opacity:1" fill="#c7c4b6" d="M 98.5,119.5 C 105.354,119.176 112.021,119.509 118.5,120.5C 116.5,123.167 114.167,125.5 111.5,127.5C 92.8333,127.5 74.1667,127.5 55.5,127.5C 55.5,124.833 55.5,122.167 55.5,119.5C 69.8333,119.5 84.1667,119.5 98.5,119.5 Z"/></g>
<g><path style="opacity:1" fill="#f5f5f5" d="M 39.5,127.5 C 44.8333,127.5 50.1667,127.5 55.5,127.5C 74.1667,127.5 92.8333,127.5 111.5,127.5C 106.5,133.167 101.167,138.5 95.5,143.5C 93.1667,146.167 90.8333,148.833 88.5,151.5C 77.5,151.5 66.5,151.5 55.5,151.5C 55.5,154.167 55.5,156.833 55.5,159.5C 64.1667,159.5 72.8333,159.5 81.5,159.5C 80.6743,162.485 79.341,165.151 77.5,167.5C 70.1667,167.5 62.8333,167.5 55.5,167.5C 55.5,170.167 55.5,172.833 55.5,175.5C 61.8333,175.5 68.1667,175.5 74.5,175.5C 73.1667,178.167 71.8333,180.833 70.5,183.5C 65.5,183.5 60.5,183.5 55.5,183.5C 55.5,186.167 55.5,188.833 55.5,191.5C 59.1667,191.5 62.8333,191.5 66.5,191.5C 64.4516,196.599 62.1183,201.599 59.5,206.5C 59.8333,206.833 60.1667,207.167 60.5,207.5C 65.8599,204.82 71.1932,202.153 76.5,199.5C 82.4116,196.64 88.4116,193.974 94.5,191.5C 110.833,191.5 127.167,191.5 143.5,191.5C 143.5,188.833 143.5,186.167 143.5,183.5C 132.828,183.667 122.161,183.5 111.5,183C 112.056,182.617 112.389,182.117 112.5,181.5C 114.833,179.5 117.167,177.5 119.5,175.5C 146.167,175.5 172.833,175.5 199.5,175.5C 199.5,172.833 199.5,170.167 199.5,167.5C 175.5,167.5 151.5,167.5 127.5,167.5C 129.833,164.5 132.5,161.833 135.5,159.5C 156.833,159.5 178.167,159.5 199.5,159.5C 199.5,156.833 199.5,154.167 199.5,151.5C 180.833,151.5 162.167,151.5 143.5,151.5C 151.167,143.167 159.167,135.167 167.5,127.5C 183.5,127.5 199.5,127.5 215.5,127.5C 215.5,147.5 215.5,167.5 215.5,187.5C 198.5,203.833 181.833,220.5 165.5,237.5C 130.165,237.667 94.8318,237.5 59.5,237C 48.8737,236.195 42.5404,230.695 40.5,220.5C 39.5081,189.573 39.1747,158.573 39.5,127.5 Z"/></g>
<g><path style="opacity:1" fill="#c7c4b6" d="M 95.5,143.5 C 82.1667,143.5 68.8333,143.5 55.5,143.5C 55.5,140.833 55.5,138.167 55.5,135.5C 68.8333,135.5 82.1667,135.5 95.5,135.5C 95.5,138.167 95.5,140.833 95.5,143.5 Z"/></g>
<g><path style="opacity:1" fill="#c7c3b7" d="M 88.5,151.5 C 87.075,152.922 86.075,154.589 85.5,156.5C 83.5695,156.771 82.2362,157.771 81.5,159.5C 72.8333,159.5 64.1667,159.5 55.5,159.5C 55.5,156.833 55.5,154.167 55.5,151.5C 66.5,151.5 77.5,151.5 88.5,151.5 Z"/></g>
<g><path style="opacity:1" fill="#c8c4b7" d="M 143.5,151.5 C 162.167,151.5 180.833,151.5 199.5,151.5C 199.5,154.167 199.5,156.833 199.5,159.5C 178.167,159.5 156.833,159.5 135.5,159.5C 137.833,156.5 140.5,153.833 143.5,151.5 Z"/></g>
<g><path style="opacity:1" fill="#fbc48a" d="M 85.5,156.5 C 88.4074,158.315 89.7407,160.981 89.5,164.5C 91.6036,164.707 93.937,164.874 96.5,165C 99.0559,166.055 100.723,167.888 101.5,170.5C 101.5,172.833 101.5,175.167 101.5,177.5C 105.416,176.961 108.416,178.294 110.5,181.5C 110.586,182.496 110.252,183.329 109.5,184C 104.408,186.546 99.4081,189.046 94.5,191.5C 88.4116,193.974 82.4116,196.64 76.5,199.5C 76.1788,197.952 75.1788,197.285 73.5,197.5C 73.8333,194.5 72.5,193.167 69.5,193.5C 69.7148,191.821 69.0481,190.821 67.5,190.5C 68.6948,188.249 69.6948,185.915 70.5,183.5C 71.8333,180.833 73.1667,178.167 74.5,175.5C 75.8916,172.993 76.8916,170.327 77.5,167.5C 79.341,165.151 80.6743,162.485 81.5,159.5C 82.2362,157.771 83.5695,156.771 85.5,156.5 Z"/></g>
<g><path style="opacity:1" fill="#c8c4b6" d="M 77.5,167.5 C 76.8916,170.327 75.8916,172.993 74.5,175.5C 68.1667,175.5 61.8333,175.5 55.5,175.5C 55.5,172.833 55.5,170.167 55.5,167.5C 62.8333,167.5 70.1667,167.5 77.5,167.5 Z"/></g>
<g><path style="opacity:1" fill="#c7c4b6" d="M 127.5,167.5 C 151.5,167.5 175.5,167.5 199.5,167.5C 199.5,170.167 199.5,172.833 199.5,175.5C 172.833,175.5 146.167,175.5 119.5,175.5C 121.833,172.5 124.5,169.833 127.5,167.5 Z"/></g>
<g><path style="opacity:1" fill="#c8c3b6" d="M 70.5,183.5 C 69.6948,185.915 68.6948,188.249 67.5,190.5C 67.5,191.167 67.1667,191.5 66.5,191.5C 62.8333,191.5 59.1667,191.5 55.5,191.5C 55.5,188.833 55.5,186.167 55.5,183.5C 60.5,183.5 65.5,183.5 70.5,183.5 Z"/></g>
<g><path style="opacity:1" fill="#c8c3b6" d="M 110.5,181.5 C 111.167,181.5 111.833,181.5 112.5,181.5C 112.389,182.117 112.056,182.617 111.5,183C 122.161,183.5 132.828,183.667 143.5,183.5C 143.5,186.167 143.5,188.833 143.5,191.5C 127.167,191.5 110.833,191.5 94.5,191.5C 99.4081,189.046 104.408,186.546 109.5,184C 110.252,183.329 110.586,182.496 110.5,181.5 Z"/></g>
<g><path style="opacity:1" fill="#fefefe" d="M 215.5,187.5 C 215.5,195.5 215.5,203.5 215.5,211.5C 214.663,216.767 213.496,222.1 212,227.5C 210.878,229.624 209.378,231.457 207.5,233C 202.102,235.433 196.435,236.766 190.5,237C 182.173,237.5 173.84,237.666 165.5,237.5C 181.833,220.5 198.5,203.833 215.5,187.5 Z"/></g>
<g><path style="opacity:1" fill="#686562" d="M 67.5,190.5 C 69.0481,190.821 69.7148,191.821 69.5,193.5C 72.5,193.167 73.8333,194.5 73.5,197.5C 75.1788,197.285 76.1788,197.952 76.5,199.5C 71.1932,202.153 65.8599,204.82 60.5,207.5C 60.1667,207.167 59.8333,206.833 59.5,206.5C 62.1183,201.599 64.4516,196.599 66.5,191.5C 67.1667,191.5 67.5,191.167 67.5,190.5 Z"/></g>
<g><path style="opacity:0.995" fill="#d5d5d5" d="M 215.5,211.5 C 216.008,219.469 214.175,226.802 210,233.5C 206.086,236.695 201.586,238.529 196.5,239C 150.5,239.667 104.5,239.667 58.5,239C 46.8845,238.219 40.8845,232.052 40.5,220.5C 42.5404,230.695 48.8737,236.195 59.5,237C 94.8318,237.5 130.165,237.667 165.5,237.5C 173.84,237.666 182.173,237.5 190.5,237C 196.435,236.766 202.102,235.433 207.5,233C 209.378,231.457 210.878,229.624 212,227.5C 213.496,222.1 214.663,216.767 215.5,211.5 Z"/></g>
</svg>
