<svg xmlns="http://www.w3.org/2000/svg" width="256" height="256" style="shape-rendering:geometricPrecision;text-rendering:geometricPrecision;image-rendering:optimizeQuality;fill-rule:evenodd;clip-rule:evenodd"><path fill="#030202" d="M-.5-.5h256v256H-.5V-.5Z" style="opacity:1"/><path fill="#c6b69a" d="M239.5 164.5c-7.848-3.856-15.015-8.856-21.5-15a111.657 111.657 0 0 0-10.5-21 16.873 16.873 0 0 0-8-1c-.603-9.819-2.936-19.152-7-28 1.495-2.858 3.662-5.192 6.5-7 1.679-4.378 3.346-8.711 5-13a64.218 64.218 0 0 0 0-16c-.907-5.733-4.074-9.4-9.5-11a443.236 443.236 0 0 1-9-28c-.609-5.272-2.609-9.938-6-14a3.646 3.646 0 0 1 1-1.5c21.906-.827 43.74-.66 65.5.5.667 51.333.667 102.667 0 154-2.267.361-4.434.695-6.5 1Z" style="opacity:1"/><path fill="#9f5c2e" d="M94.5 8.5a73.123 73.123 0 0 1 17 1c7.799 1.34 15.466 2.673 23 4a535.755 535.755 0 0 1-42-2c.692-1.018 1.36-2.018 2-3Z" style="opacity:1"/><path fill="#a67c45" d="M91.5 7.5c17.003-.167 34.003 0 51 .5a35.524 35.524 0 0 0 4 5.5v8a64.678 64.678 0 0 1-2-7 25.87 25.87 0 0 0-10-1 5589.498 5589.498 0 0 0-23-4 73.123 73.123 0 0 0-17-1c-1.517.01-2.684.677-3.5 2-.399-.228-.565-.562-.5-1l1-2Z" style="opacity:1"/><path fill="#8e765d" d="M146.5 7.5c1.802 3.074 2.802 6.408 3 10h-1l-2-4c.028-2.082-.639-3.916-2-5.5a2.427 2.427 0 0 1 2-.5Z" style="opacity:1"/><path fill="#bfb4a1" d="M81.5 7.5a186.62 186.62 0 0 0-9.5 16c-.5 6.658-.666 13.325-.5 20-12.437 3.045-22.77 9.378-31 19-.543-.06-.876-.393-1-1a60.425 60.425 0 0 0 5-9 693.402 693.402 0 0 1 25-10.5c-3.726-1.043-3.393-1.543 1-1.5a28.689 28.689 0 0 0-2-12 60.26 60.26 0 0 0 3.5-13c2.395-1.581 2.895-3.581 1.5-6A522.229 522.229 0 0 0 9 9.5c-.667 78.333-.667 156.667 0 235l1.5 1.5c12 .667 24 .667 36 0a98.233 98.233 0 0 1 4-8.5 270.83 270.83 0 0 0 16-15 4.458 4.458 0 0 0-2-1.5 45.3 45.3 0 0 1 7 .5c-9.489 6.992-17.489 15.492-24 25.5-13.33.5-26.663.667-40 .5V7.5h74Z" style="opacity:1"/><path fill="#c7b69a" d="M40.5 62.5c-7.298 13.753-3.298 22.753 12 27 .417.722 1.084 1.222 2 1.5 6.992.5 13.992.666 21 .5 2.689 2.914 6.022 4.914 10 6a94.528 94.528 0 0 0 6.5 16 215.787 215.787 0 0 0 14 24c6.537 5.875 13.037 11.708 19.5 17.5-1.907 5.919-5.407 10.752-10.5 14.5a813.257 813.257 0 0 1-10.5 27 598.486 598.486 0 0 1-33 25 45.3 45.3 0 0 0-7-.5 4.458 4.458 0 0 1 2 1.5 270.83 270.83 0 0 1-16 15 98.233 98.233 0 0 0-4 8.5c-12 .667-24 .667-36 0L9 244.5c-.667-78.333-.667-156.667 0-235a522.229 522.229 0 0 1 64.5 0c1.395 2.419.895 4.419-1.5 6a60.26 60.26 0 0 1-3.5 13 28.689 28.689 0 0 1 2 12c-4.393-.043-4.726.457-1 1.5a693.402 693.402 0 0 0-25 10.5 60.425 60.425 0 0 1-5 9c.124.607.457.94 1 1Z" style="opacity:1"/><path fill="#f8f3ab" d="M154.5 7.5c7.539-1.649 13.705.351 18.5 6a47.868 47.868 0 0 1 4.5 8c.294 3.6.96 7.1 2 10.5a8.435 8.435 0 0 1-4 .5v-4c-1.175.219-2.175-.114-3-1 .059-4.248-1.941-6.581-6-7a41.541 41.541 0 0 0-1-8c-2.644.34-4.977-.327-7-2-.607.124-.94.457-1 1-1.474-.936-2.474-2.27-3-4Z" style="opacity:1"/><path fill="#c1b6a5" d="m241.5 166.5-2-2c2.066-.305 4.233-.639 6.5-1 .667-51.333.667-102.667 0-154a719.935 719.935 0 0 0-65.5-.5 3.646 3.646 0 0 0-1 1.5c3.391 4.062 5.391 8.728 6 14-2.415-5.986-5.748-11.486-10-16.5 23.998-.5 47.998-.667 72-.5.333 53.67 0 107.337-1 161a16.076 16.076 0 0 0-5-2Z" style="opacity:1"/><path fill="#9a3d1f" d="M94.5 8.5c-.64.982-1.308 1.982-2 3a535.755 535.755 0 0 0 42 2 25.87 25.87 0 0 1 10 1 64.678 64.678 0 0 0 2 7l1 10h-1c-.127-3.316-1.127-6.316-3-9-2.93-.404-5.763-.404-8.5 0-3.523-3.927-7.857-6.26-13-7-2.971 1.208-6.471 2.041-10.5 2.5l2 2c-1.821 2.456-2.488 5.29-2 8.5 2.597.143 4.931.977 7 2.5-2.861-.03-5.195.803-7 2.5a124.913 124.913 0 0 1-17 1v3a51.639 51.639 0 0 0-7 1v-22c.764-2.518 1.764-4.851 3-7-.065.438.101.772.5 1 .816-1.323 1.983-1.99 3.5-2Z" style="opacity:1"/><path fill="#9b351d" d="M146.5 31.5v3a566.51 566.51 0 0 0-35-1c1.805-1.697 4.139-2.53 7-2.5-2.069-1.523-4.403-2.357-7-2.5-.488-3.21.179-6.044 2-8.5l-2-2c4.029-.459 7.529-1.292 10.5-2.5 5.143.74 9.477 3.073 13 7 2.737-.404 5.57-.404 8.5 0 1.873 2.684 2.873 5.684 3 9Z" style="opacity:1"/><path fill="#a4854b" d="M148.5 7.5h6c.526 1.73 1.526 3.064 3 4a170.109 170.109 0 0 1 6 23h-1c-.321-1.548-1.321-2.215-3-2a32.462 32.462 0 0 0-.5-8 10.256 10.256 0 0 1-1.5 4 75.201 75.201 0 0 0-3-11c-.886.825-1.219 1.825-1 3a77.088 77.088 0 0 1-5-13Z" style="opacity:1"/><path fill="#893d3a" d="M148.5 17.5h1a188.274 188.274 0 0 0 3 20c-.992.172-1.658-.162-2-1a72.192 72.192 0 0 1-2-19Z" style="opacity:1"/><path fill="#532513" d="M146.5 7.5h2a77.088 77.088 0 0 0 5 13 92.737 92.737 0 0 0 1 17h-2a188.274 188.274 0 0 1-3-20c-.198-3.592-1.198-6.926-3-10Z" style="opacity:1"/><path fill="#f8f5d0" d="M177.5 21.5a425.845 425.845 0 0 1 8 22c.131.876-.202 1.543-1 2a527.51 527.51 0 0 0-17-6.5c-2.109-.907-3.442-2.407-4-4.5a170.109 170.109 0 0 0-6-23c.06-.543.393-.876 1-1 2.023 1.673 4.356 2.34 7 2a41.541 41.541 0 0 1 1 8c4.059.419 6.059 2.752 6 7 .825.886 1.825 1.219 3 1v4a8.435 8.435 0 0 0 4-.5c-1.04-3.4-1.706-6.9-2-10.5Z" style="opacity:1"/><path fill="#983d2e" d="M87.5 16.5v22a51.639 51.639 0 0 1 7-1v-3c5.696.053 11.362-.28 17-1a566.51 566.51 0 0 1 35 1v-3h1v4c-18.552-.978-36.886.356-55 4-1.599-.268-2.932.066-4 1-1.324-3.607-1.99-7.607-2-12 .001-4.181.334-8.181 1-12Z" style="opacity:1"/><path fill="#6f4630" d="M84.5 19.5c-.667 29.333-1.333 29.333-2 0 .438-1.006 1.104-1.006 2 0Z" style="opacity:1"/><path fill="#a04926" d="M162.5 34.5v4h-3c-1.915.285-3.581-.049-5-1a92.737 92.737 0 0 1-1-17c-.219-1.175.114-2.175 1-3a75.201 75.201 0 0 1 3 11 10.256 10.256 0 0 0 1.5-4c.497 2.646.664 5.313.5 8 1.679-.215 2.679.452 3 2Z" style="opacity:1"/><path fill="#a8678a" d="M89.5 7.5a47.396 47.396 0 0 0-5 12c-.896-1.006-1.562-1.006-2 0-.667 0-1 .333-1 1-.617.11-1.117.444-1.5 1-.5 6.992-.666 13.992-.5 21-.992-.172-1.658.162-2 1-.876.13-1.543-.203-2-1a184.415 184.415 0 0 0 1.5-18 253.79 253.79 0 0 1 10.5-16c.342-.838 1.008-1.172 2-1Z" style="opacity:1"/><path fill="#6d2d21" d="M81.5 20.5c.63 7.743-.037 15.076-2 22-.166-7.008 0-14.008.5-21 .383-.556.883-.89 1.5-1Z" style="opacity:1"/><path fill="#2e110a" d="m146.5 13.5 2 4c-.17 6.467.496 12.8 2 19-6.342-.166-12.675 0-19 .5 1.801.317 2.134.984 1 2-5.323.5-10.656.666-16 .5 3.477-.823 7.144-1.323 11-1.5a104.551 104.551 0 0 0-32 2.5c-1.226-.02-2.226-.353-3-1 18.114-3.644 36.448-4.978 55-4v-4l-1-10v-8Z" style="opacity:1"/><path fill="#5d3537" d="M116.5 39.5a589.496 589.496 0 0 0-24 3 129.824 129.824 0 0 0-17 5c-.342-.838-1.008-1.172-2-1 2.185-.68 3.519-1.68 4-3 .342-.838 1.008-1.172 2-1 3.953.739 7.953.239 12-1.5a4.932 4.932 0 0 0-3-.5c1.068-.934 2.401-1.268 4-1 .774.647 1.774.98 3 1a104.551 104.551 0 0 1 32-2.5c-3.856.177-7.523.677-11 1.5Z" style="opacity:1"/><path fill="#360f0d" d="M89.5 7.5h2l-1 2c-1.236 2.149-2.236 4.482-3 7-.666 3.819-.999 7.819-1 12 .01 4.393.676 8.393 2 12a4.932 4.932 0 0 1 3 .5c-4.047 1.739-8.047 2.239-12 1.5 1.963-6.924 2.63-14.257 2-22 0-.667.333-1 1-1 .667 29.333 1.333 29.333 2 0a47.396 47.396 0 0 1 5-12Z" style="opacity:1"/><path fill="#8d5532" d="M162.5 34.5h1c.558 2.093 1.891 3.593 4 4.5a527.51 527.51 0 0 1 17 6.5c.798-.457 1.131-1.124 1-2 1.923 1.701 2.257 3.701 1 6a509.773 509.773 0 0 1-27-11h3v-4Z" style="opacity:1"/><path fill="#6c6b60" d="M157.5 48.5c-1.599-.268-2.932.066-4 1-1.988.327-3.988.66-6 1-3.528-.517-3.695-1.184-.5-2 3.66-1.164 7.16-1.164 10.5 0Z" style="opacity:1"/><path fill="#dddcc6" d="M157.5 48.5c2.73 2.691 6.064 4.025 10 4l5 2c-4.369.033-8.702-.3-13-1h-1c-2.211-.611-3.878-1.944-5-4 1.068-.934 2.401-1.268 4-1Z" style="opacity:1"/><path fill="#e6e2c3" d="M153.5 57.5c-.814 2.131-1.314 4.464-1.5 7l-1-3c-1.754 1.75-3.921 2.417-6.5 2l-1-6a32.688 32.688 0 0 1 10-4v4Z" style="opacity:1"/><path fill="#0f0d0f" d="M81.5 7.5c.94 2.625 2.107 2.625 3.5 0 .67.752 1.504 1.086 2.5 1a253.79 253.79 0 0 0-10.5 16 184.415 184.415 0 0 1-1.5 18c.457.797 1.124 1.13 2 1-.481 1.32-1.815 2.32-4 3-14.06 3.578-25.227 11.244-33.5 23-.75 1.135-.583 2.135.5 3 8.003-13.32 19.67-21.652 35-25a129.824 129.824 0 0 1 17-5c-1.381 4.755-4.381 6.089-9 4a28.04 28.04 0 0 1-5 1.5c.837 1.011 1.17 2.178 1 3.5a19.066 19.066 0 0 1-6-1l-2 1 3 2c-2.872 1.282-5.705 1.282-8.5 0-1.628 1.319-1.461 2.652.5 4a90.458 90.458 0 0 0-10 5.5c2.522.499 5.022.332 7.5-.5 3.7 1.987 7.534 1.987 11.5 0a13.117 13.117 0 0 0-7-1v-3c3.365.245 6.532-.422 9.5-2 1.168.508 2.002 1.342 2.5 2.5 2.056.31 4.056.81 6 1.5.886.825 1.219 1.825 1 3-7.445.423-13.611 3.423-18.5 9a8.434 8.434 0 0 0-.5 4c-1.29-1.748-2.79-2.081-4.5-1a694.27 694.27 0 0 0-15.5-4 24.068 24.068 0 0 0-4 8.5c3.064 1.859 6.064 3.692 9 5.5.067 1.459-.266 2.792-1 4-15.298-4.247-19.298-13.247-12-27 8.23-9.622 18.563-15.955 31-19-.166-6.675 0-13.342.5-20a186.62 186.62 0 0 1 9.5-16Z" style="opacity:1"/><path fill="#866975" d="M73.5 46.5c.992-.172 1.658.162 2 1-15.33 3.348-26.997 11.68-35 25-1.083-.865-1.25-1.865-.5-3 8.273-11.756 19.44-19.422 33.5-23Z" style="opacity:1"/><path fill="#9b9c92" d="m143.5 57.5 1 6c2.579.417 4.746-.25 6.5-2l1 3c.186-2.536.686-4.869 1.5-7a40.911 40.911 0 0 1-.5 9c-.223 2.38-1.39 4.047-3.5 5-1.784-1.074-2.951-2.74-3.5-5-.928-1.835-2.094-2.168-3.5-1-.798-.457-1.131-1.124-1-2 .375-2.198 1.042-4.198 2-6Z" style="opacity:1"/><path fill="#a28a65" d="M184.5 66.5c-.175 2.12.159 4.12 1 6l-2 8v-1c-.196-2.146-1.196-2.312-3-.5a84.664 84.664 0 0 1-4.5 7.5 68.044 68.044 0 0 0 1.5-13c.904.709 1.237 1.709 1 3h4c-.134-1.791.199-3.458 1-5-.284-1.915.049-3.581 1-5Z" style="opacity:1"/><path fill="#3e3b3b" d="M141.5 63.5c-.131.876.202 1.543 1 2 1.406-1.168 2.572-.835 3.5 1 .549 2.26 1.716 3.926 3.5 5-.453.958-1.119 1.792-2 2.5-4.87.682-9.537 1.85-14 3.5-1.021-.502-1.188-1.168-.5-2a565.12 565.12 0 0 0 8.5-12Z" style="opacity:1"/><path fill="#151b28" d="M68.5 76.5c-.067 1.459.266 2.792 1 4-2.342.004-4.342.838-6 2.5l-9 1c1.558.21 2.892.71 4 1.5h-5a1604.849 1604.849 0 0 0-9-5.5 24.068 24.068 0 0 1 4-8.5 694.27 694.27 0 0 1 15.5 4c1.71-1.081 3.21-.748 4.5 1Z" style="opacity:1"/><path fill="#373441" d="M69.5 80.5c1.543 1.236 2.543 2.902 3 5-4.645.968-9.312.968-14 0-1.108-.79-2.442-1.29-4-1.5l9-1c1.658-1.662 3.658-2.496 6-2.5Z" style="opacity:1"/><path fill="#6a6162" d="M77.5 86.5c-.667 0-1 .333-1 1-1.878-2.745-3.545-5.745-5-9l1-1a58.672 58.672 0 0 0 5 9Z" style="opacity:1"/><path fill="#cd6448" d="M171.5 66.5c.543.06.876.393 1 1-4.52 1.76-6.187 5.094-5 10l-1.5 6-5 8c-.001 9.324.165 18.657.5 28h-1c-2.799-17.288-.965-33.955 5.5-50 1.264-2.107 3.097-3.107 5.5-3Z" style="opacity:1"/><path fill="#faf6d9" d="M175.5 71.5h1l1 2a68.044 68.044 0 0 1-1.5 13 84.664 84.664 0 0 0 4.5-7.5c1.804-1.812 2.804-1.646 3 .5-1.879-.107-2.212.393-1 1.5a6.977 6.977 0 0 0-2.5 3.5 124.584 124.584 0 0 0-1 19c1.233 2.922 2.733 5.589 4.5 8h-1c-2.321-.271-4.321.396-6 2a98.091 98.091 0 0 1-5-18h-3c1.337-7.338 2.671-14.671 4-22 1.679.215 2.679-.452 3-2Z" style="opacity:1"/><path fill="#5c5549" d="M52.5 89.5a807.68 807.68 0 0 1 23 2c-7.008.166-14.008 0-21-.5-.916-.278-1.583-.778-2-1.5Z" style="opacity:1"/><path fill="#b1a1a8" d="M77.5 86.5c1.08 2.043 2.746 3.376 5 4 1.792.81 3.792 1.31 6 1.5-4.156 1.054-7.822.22-11-2.5l-1-2c0-.667.333-1 1-1Z" style="opacity:1"/><path fill="#b44d3f" d="M171.5 65.5v1c-2.403-.107-4.236.893-5.5 3-6.465 16.045-8.299 32.712-5.5 50l1 8c-1.951.273-3.451-.393-4.5-2a108.183 108.183 0 0 0-3.5-29c.957-5.575 2.957-10.575 6-15a8.43 8.43 0 0 1 .5-4 59.581 59.581 0 0 0 5-9c1.406-3.127 3.573-4.127 6.5-3Z" style="opacity:1"/><path fill="#f7f7f1" d="M183.5 79.5v1c-.318 5.16.348 10.16 2 15a77.1 77.1 0 0 1 1 13 5.727 5.727 0 0 0-1 3h-2c-1.767-2.411-3.267-5.078-4.5-8-.152-6.336.181-12.67 1-19a6.977 6.977 0 0 1 2.5-3.5c-1.212-1.107-.879-1.607 1-1.5Z" style="opacity:1"/><path fill="#f8cc96" d="M169.5 75.5c-1.13 7.029-3.13 13.696-6 20-1.23 8.852-1.23 17.852 0 27h5c-1.159 1.877-2.826 2.377-5 1.5-1.537-1.11-2.203-2.61-2-4.5a778.999 778.999 0 0 1-.5-28l5-8 1.5-6 2-2Z" style="opacity:1"/><path fill="#6a6a6a" d="M185.5 95.5c1.452 2.348 2.118 5.014 2 8-.007 1.869-.34 3.536-1 5a77.1 77.1 0 0 0-1-13Z" style="opacity:1"/><path fill="#fbf2bd" d="M175.5 71.5c-.321 1.548-1.321 2.215-3 2-1.329 7.329-2.663 14.662-4 22h3a98.091 98.091 0 0 0 5 18c1.679-1.604 3.679-2.271 6-2-.978 2.978-2.978 4.978-6 6-1.788.285-3.455-.048-5-1 1.303-2.089.803-3.756-1.5-5a45.984 45.984 0 0 0-2-10 4.457 4.457 0 0 1-1.5 2 29.046 29.046 0 0 1-3-8c2.87-6.304 4.87-12.971 6-20 .215-4.335 2.215-5.668 6-4Z" style="opacity:1"/><path fill="#55231b" d="M111.5 72.5c5.313-1.385 7.813.615 7.5 6 5.56 4.66 12.06 6.16 19.5 4.5a42.3 42.3 0 0 1 11-3.5 32.894 32.894 0 0 0 7-3c-1.187 2.405-2.687 4.739-4.5 7-.918 4.37-2.418 8.37-4.5 12h3a28.496 28.496 0 0 1-1 9.5c1.705 2.639 2.372 5.305 2 8-.761 2.425-2.428 3.758-5 4 .457.414.791.914 1 1.5-1.189.929-2.522 1.262-4 1 .058 4.201-.942 4.701-3 1.5a12.93 12.93 0 0 0-5-.5c-2.667-1.333-5.333-1.333-8 0h-3l1-2c2 0 3-1 3-3a45.29 45.29 0 0 0 8 3l4-.5c-.736-2.021.097-3.521 2.5-4.5 1.298-1.446 1.465-2.779.5-4v-3c-2.181.216-3.847-.617-5-2.5-5.635-1.69-11.302-2.19-17-1.5a15.014 15.014 0 0 1-3.5 4 16.252 16.252 0 0 0-4.5-2 30.947 30.947 0 0 1-6 2.5c-1.819 1.415-2.485 2.915-2 4.5-1.536 1.525-2.536 3.525-3 6a261.587 261.587 0 0 0-9.5-18 8.434 8.434 0 0 1-.5-4h-4c5.77-1.538 11.437-3.705 17-6.5a36.005 36.005 0 0 0 3.5-4.5 221.343 221.343 0 0 1 2.5-12Z" style="opacity:1"/><path fill="#150a07" d="M143.5 109.5c-2.837 1.761-5.17 1.261-7-1.5a20.431 20.431 0 0 1-5.5-1.5c-1.395 1.315-2.395.981-3-1-5.467 2.539-11.3 4.206-17.5 5-1.468 2.654-3.135 4.987-5 7v-6c-.485-1.585.181-3.085 2-4.5a30.947 30.947 0 0 0 6-2.5 16.252 16.252 0 0 1 4.5 2 15.014 15.014 0 0 0 3.5-4c5.698-.69 11.365-.19 17 1.5 1.153 1.883 2.819 2.716 5 2.5v3Z" style="opacity:1"/><path fill="#170907" d="m124.5 93.5 9 3a3.647 3.647 0 0 1-1 1.5l-6.5.5c-2.61-.033-4.777-.7-6.5-2 1.399-1.39 3.066-2.39 5-3Z" style="opacity:1"/><path fill="#813c37" d="M124.5 93.5c-1.934.61-3.601 1.61-5 3-.904.709-1.237 1.709-1 3a87.265 87.265 0 0 1-9-2c-2.91.044-3.91 1.21-3 3.5a4.934 4.934 0 0 1-3 .5c-.424-5.484 1.576-9.817 6-13l1 .5c-1.914 1.413-3.247 3.247-4 5.5l2.5 1a103.095 103.095 0 0 1 18.5-3.5c-1.237.232-2.237.732-3 1.5Z" style="opacity:1"/><path fill="#321715" d="M143.5 109.5c.965 1.221.798 2.554-.5 4-2.403.979-3.236 2.479-2.5 4.5l-4 .5a45.29 45.29 0 0 1-8-3h-3v3l-1 2c-3.619.68-7.286 1.18-11 1.5a6.978 6.978 0 0 0-3.5 2.5c-.335-2.69-1.501-3.357-3.5-2-.951-1.419-1.284-3.085-1-5 1.865-2.013 3.532-4.346 5-7 6.2-.794 12.033-2.461 17.5-5 .605 1.981 1.605 2.315 3 1a20.431 20.431 0 0 0 5.5 1.5c1.83 2.761 4.163 3.261 7 1.5Z" style="opacity:1"/><path fill="#f9f6ae" d="M163.5 95.5a29.046 29.046 0 0 0 3 8 4.457 4.457 0 0 0 1.5-2 45.984 45.984 0 0 1 2 10c2.303 1.244 2.803 2.911 1.5 5 1.545.952 3.212 1.285 5 1l-1 2a19.49 19.49 0 0 1-7 3h-5c-1.23-9.148-1.23-18.148 0-27Z" style="opacity:1"/><path fill="#c6a181" d="M182.5 111.5h3a409.027 409.027 0 0 1-3 6c-2.608-.1-4.942.567-7 2l1-2c3.022-1.022 5.022-3.022 6-6Z" style="opacity:1"/><path fill="#60271d" d="M172.5 65.5h-1c-2.927-1.127-5.094-.127-6.5 3a59.581 59.581 0 0 1-5 9 8.43 8.43 0 0 0-.5 4c-2.223.615-3.889 1.948-5 4a38.202 38.202 0 0 0-2 11 481.766 481.766 0 0 1 3.5 33c2.737 1.11 5.571 1.277 8.5.5a249.176 249.176 0 0 0 16-9.5v1c-9.692 12.708-21.692 22.375-36 29-4.816-.826-9.816-1.326-15-1.5a38.47 38.47 0 0 1-5-5.5 12.93 12.93 0 0 0 5-.5 63.028 63.028 0 0 0 9-16.5c-.124-.607-.457-.94-1-1-.342-.838-1.008-1.172-2-1a185.977 185.977 0 0 0-2-3c.457-.798 1.124-1.131 2-1a12.93 12.93 0 0 1 5 .5c2.058 3.201 3.058 2.701 3-1.5 1.478.262 2.811-.071 4-1a3.647 3.647 0 0 0-1-1.5c2.572-.242 4.239-1.575 5-4 .372-2.695-.295-5.361-2-8a28.496 28.496 0 0 0 1-9.5h-3c2.082-3.63 3.582-7.63 4.5-12 1.813-2.261 3.313-4.595 4.5-7a33.254 33.254 0 0 0 8-11.5c2.992-2.134 5.658-1.968 8 .5Z" style="opacity:1"/><path fill="#9f7f6c" d="M128.5 115.5c0 2-1 3-3 3v-3h3Z" style="opacity:1"/><path fill="#150c0d" d="M111.5 72.5a221.343 221.343 0 0 0-2.5 12 36.005 36.005 0 0 1-3.5 4.5c-5.563 2.795-11.23 4.962-17 6.5-.16 1.7.007 3.366.5 5a236.379 236.379 0 0 1 13 26 135.382 135.382 0 0 0 18.5 20.5c7.379 5.703 15.379 6.87 24 3.5 14.308-6.625 26.308-16.292 36-29 3.945-2.727 4.945-1.727 3 3a56.72 56.72 0 0 0-8 10 293.927 293.927 0 0 0-17 14c-6.572 4.812-13.906 7.812-22 9h-4v9c-4.3 6.018-3.467 11.352 2.5 16 .013 3.396 1.346 6.062 4 8 2.341-.507 2.841-1.674 1.5-3.5 5.255-1.122 9.255-3.955 12-8.5 1.527.073 2.527-.594 3-2a297.395 297.395 0 0 1 19-14c.886-.825 1.219-1.825 1-3 3.312.351 5.645-.982 7-4l3-2c-.905 1.464-.905 2.798 0 4l-1 2a141.893 141.893 0 0 0-13 10 110.962 110.962 0 0 1-10 6.5 429.866 429.866 0 0 0-18 16.5c-4.23 1.881-7.563.881-10-3a137.338 137.338 0 0 1-6.5-12c-.708-.881-1.542-1.547-2.5-2 .143-2.597.977-4.931 2.5-7 .814-2.402.647-4.735-.5-7a58.829 58.829 0 0 1-6.5 8c-2.982 7.303-5.982 14.637-9 22-.678 2.098-.511 4.098.5 6a33.673 33.673 0 0 1 4 5.5c1.428.579 2.762.412 4-.5-.135 3.774-1.802 5.108-5 4-.683-1.676-2.017-2.343-4-2 .285-1.788-.048-3.455-1-5-2.544 1.892-2.544 3.725 0 5.5a75.78 75.78 0 0 0-6 8.5l1 2a57.178 57.178 0 0 0-3 6.5c.488 1.584 1.488 2.751 3 3.5a27.038 27.038 0 0 0-4 7.5 9.258 9.258 0 0 0 2 2.5c-2.204 2.947-3.204 6.28-3 10-.617-.111-1.117-.444-1.5-1a11.357 11.357 0 0 1-1.5 3.5c-12.507.827-24.84.66-37-.5h4c10.846.328 21.513-.006 32-1-.143-3.704.857-7.037 3-10a27.314 27.314 0 0 0-1-3.5 192.418 192.418 0 0 1 3-20.5 22.573 22.573 0 0 0 4-8c-1.792-.134-3.458.199-5 1 1.597-2.264 3.597-4.264 6-6a5.576 5.576 0 0 1-1-3 813.257 813.257 0 0 0 10.5-27c5.093-3.748 8.593-8.581 10.5-14.5a18533.651 18533.651 0 0 1-19.5-17.5 215.787 215.787 0 0 1-14-24 94.528 94.528 0 0 1-6.5-16c-3.978-1.086-7.311-3.086-10-6 1-.333 1.667-1 2-2 3.178 2.72 6.844 3.554 11 2.5-2.208-.19-4.208-.69-6-1.5 14.974 2.043 23.307-4.29 25-19 1.459-.067 2.792.266 4 1Z" style="opacity:1"/><path fill="#72423c" d="M124.5 120.5h3c-.73 1.212-1.73 2.212-3 3a144.189 144.189 0 0 1-11 2 5.727 5.727 0 0 0-3 1c-1.639-.973-2.973-2.306-4-4 1.999-1.357 3.165-.69 3.5 2a6.978 6.978 0 0 1 3.5-2.5c3.714-.32 7.381-.82 11-1.5Z" style="opacity:1"/><path fill="#f3f1eb" d="M195.5 127.5c.266 3.166.599 6.333 1 9.5-.069 1.986-.735 3.486-2 4.5-2.157-2.304-3.824-4.971-5-8-3.48-.557-5.147-2.557-5-6l1-4a87.246 87.246 0 0 1 5-14 96.475 96.475 0 0 1 5 18Z" style="opacity:1"/><path fill="#7c352e" d="M135.5 120.5c-.876-.131-1.543.202-2 1a185.977 185.977 0 0 1 2 3c-2.993 1.996-6.326 2.996-10 3a84.902 84.902 0 0 1-13-.5c.556-.383.889-.883 1-1.5a144.189 144.189 0 0 0 11-2c1.27-.788 2.27-1.788 3-3 2.667-1.333 5.333-1.333 8 0Z" style="opacity:1"/><path fill="#110807" d="M135.5 124.5c.992-.172 1.658.162 2 1-1.988 2.661-3.321 5.661-4 9h-3c.253 2.327-.414 4.327-2 6-2.207-2.183-4.874-3.516-8-4a25.658 25.658 0 0 0-6-6 253.208 253.208 0 0 1 11-3c3.674-.004 7.007-1.004 10-3Z" style="opacity:1"/><path fill="#8f4532" d="M159.5 81.5c-3.043 4.425-5.043 9.425-6 15a108.183 108.183 0 0 1 3.5 29c1.049 1.607 2.549 2.273 4.5 2l-1-8h1c-.203 1.89.463 3.39 2 4.5 2.174.877 3.841.377 5-1.5a19.49 19.49 0 0 0 7-3c2.058-1.433 4.392-2.1 7-2l-2 3a249.176 249.176 0 0 1-16 9.5c-2.929.777-5.763.61-8.5-.5a481.766 481.766 0 0 0-3.5-33c.128-3.77.795-7.437 2-11 1.111-2.052 2.777-3.385 5-4Z" style="opacity:1"/><path fill="#14110e" d="M167.5 52.5c4.723.514 9.389.514 14 0 2.274.47 4.274 1.47 6 3 1.982-1.47 3.648-1.136 5 1a4.451 4.451 0 0 0 2-1.5c-1.098-.77-1.098-1.603 0-2.5 5.426 1.6 8.593 5.267 9.5 11a64.218 64.218 0 0 1 0 16 7382.626 7382.626 0 0 0-5 13c-2.838 1.808-5.005 4.142-6.5 7 4.064 8.848 6.397 18.181 7 28 2.747-.313 5.414.02 8 1a111.657 111.657 0 0 1 10.5 21c6.485 6.144 13.652 11.144 21.5 15l2 2c-2.748-.098-3.414.902-2 3-7.749-3.045-14.749-7.379-21-13a52.108 52.108 0 0 1-5.5 8c-.384 1.697-.218 3.363.5 5a4.934 4.934 0 0 0-3 .5c1.228 1.49 1.228 2.99 0 4.5-1.478-.262-2.811.071-4 1 .124.607.457.94 1 1-.948 1.478-2.281 2.478-4 3-2.493 2.158-4.16 4.824-5 8-3.206 2.084-4.539 5.084-4 9v1a304.79 304.79 0 0 1-8.5 14 12.93 12.93 0 0 0-.5 5 19.552 19.552 0 0 1-3.5 4c.01 4.151-1.823 7.151-5.5 9-.667 0-1-.333-1-1a261.977 261.977 0 0 0 12-28c3.12-2.378 3.787-5.378 2-9a120.911 120.911 0 0 0 8-12c.667 0 1-.333 1-1a9359.98 9359.98 0 0 1 10-11c.901-.79 1.568-1.79 2-3 2.329-2.341 4.329-5.008 6-8a214.06 214.06 0 0 1-12-23c-1.333-1.333-2.667-1.333-4 0 .825.886 1.825 1.219 3 1a24.935 24.935 0 0 1-.5 7 132.702 132.702 0 0 1-17.5 16c-.905-1.202-.905-2.536 0-4 1-1.667 2.333-3 4-4a75.117 75.117 0 0 0 7.5-7c.901-5.275.401-10.275-1.5-15a96.475 96.475 0 0 0-5-18 87.246 87.246 0 0 0-5 14l-2 1c1.945-4.727.945-5.727-3-3v-1l2-3a409.027 409.027 0 0 0 3-6 5.727 5.727 0 0 1 1-3c.66-1.464.993-3.131 1-5 .118-2.986-.548-5.652-2-8-1.652-4.84-2.318-9.84-2-15l2-8a434.888 434.888 0 0 0 3 22c4.062-.224 6.895-2.224 8.5-6 3.125-8.08 4.125-16.413 3-25-6.54-7.323-11.706-6.323-15.5 3-.951 1.419-1.284 3.085-1 5-2.831-.579-5.164-1.912-7-4-.787-1.604-2.12-2.27-4-2-2.342-2.468-5.008-2.634-8-.5a33.254 33.254 0 0 1-8 11.5 32.894 32.894 0 0 1-7 3c-.558-1.29-1.558-2.123-3-2.5 5.659-.996 9.493-4.162 11.5-9.5.499-4.655.666-9.322.5-14h1a60.93 60.93 0 0 0 .5 11c1.232-2.8 1.899-5.8 2-9a32.058 32.058 0 0 1 2.5 4l3-1.5 14-1a3.647 3.647 0 0 0 1-1.5 25.87 25.87 0 0 0-10-1l-5-2Z" style="opacity:1"/><path fill="#4e3c24" d="M176.5 67.5c1.836 2.088 4.169 3.421 7 4-.801 1.542-1.134 3.209-1 5h-4c.237-1.291-.096-2.291-1-3l-1-2v-4Z" style="opacity:1"/><path fill="#dcddc4" d="M185.5 72.5c-.841-1.88-1.175-3.88-1-6 3.794-9.323 8.96-10.323 15.5-3 1.125 8.587.125 16.92-3 25-1.605 3.776-4.438 5.776-8.5 6a434.888 434.888 0 0 1-3-22Z" style="opacity:1"/><path fill="#150f0c" d="m191.5 74.5 2 1c.734 1.208 1.067 2.541 1 4-2.33 2.084-3.497 4.751-3.5 8a10.256 10.256 0 0 1-1.5-4c.491-3.174 1.157-6.174 2-9Z" style="opacity:1"/><path fill="#d5b183" d="m196.5 72.5 2 4c-.689 1.274-1.523 1.274-2.5 0-.232 1.237-.732 2.237-1.5 3 .067-1.459-.266-2.792-1-4l3-3Z" style="opacity:1"/><path fill="#ce8359" d="M171.5 66.5v-1h1c1.88-.27 3.213.396 4 2v4h-1c-3.785-1.668-5.785-.335-6 4l-2 2c-1.187-4.906.48-8.24 5-10-.124-.607-.457-.94-1-1Z" style="opacity:1"/><path fill="#e28365" d="m196.5 72.5-3 3-2-1a22.833 22.833 0 0 1-3-4c3.333-3.716 6-3.05 8 2Z" style="opacity:1"/><path fill="#1e1913" d="m198.5 76.5-2-4c-2-5.05-4.667-5.716-8-2-.577 1.273-1.243 1.273-2 0 2-4 5-7 9-9l2.5 3c.499 3.986.666 7.986.5 12Z" style="opacity:1"/><path fill="#a19f7b" d="M159.5 53.5c4.298.7 8.631 1.033 13 1a25.87 25.87 0 0 1 10 1 3.647 3.647 0 0 1-1 1.5l-14 1-3 1.5a32.058 32.058 0 0 0-2.5-4c-.101 3.2-.768 6.2-2 9a60.93 60.93 0 0 1-.5-11Z" style="opacity:1"/><path fill="#48211b" d="M113.5 125.5c-.111.617-.444 1.117-1 1.5 4.321.499 8.654.666 13 .5-3.57.885-7.237 1.885-11 3a25.658 25.658 0 0 1 6 6c3.126.484 5.793 1.817 8 4 1.586-1.673 2.253-3.673 2-6h3c.679-3.339 2.012-6.339 4-9 .543.06.876.393 1 1a63.028 63.028 0 0 1-9 16.5 12.93 12.93 0 0 1-5 .5c-6.557-3.277-11.89-7.943-16-14a185.977 185.977 0 0 0 2-3 5.727 5.727 0 0 1 3-1Z" style="opacity:1"/><path fill="#f7eab0" d="M184.5 127.5c-.147 3.443 1.52 5.443 5 6 1.176 3.029 2.843 5.696 5 8a42.63 42.63 0 0 1-7 5h-3c-.995-3.988-1.995-7.988-3-12 .055-2.86 1.055-5.193 3-7Z" style="opacity:1"/><path fill="#974936" d="m185.5 123.5-1 4c-1.945 1.807-2.945 4.14-3 7 1.005 4.012 2.005 8.012 3 12h3c1.548.321 2.215 1.321 2 3-1.667 1-3 2.333-4 4l-3 2c-1.574-.437-2.741-1.437-3.5-3-2.251-3.826-3.918-7.826-5-12-.748-2.34-.248-4.34 1.5-6a56.72 56.72 0 0 1 8-10l2-1Z" style="opacity:1"/><path fill="#a66e99" d="M88.5 95.5h4a8.434 8.434 0 0 0 .5 4 261.587 261.587 0 0 1 9.5 18c.464-2.475 1.464-4.475 3-6v6c-.284 1.915.049 3.581 1 5 1.027 1.694 2.361 3.027 4 4-.641.982-1.307 1.982-2 3 4.11 6.057 9.443 10.723 16 14a38.47 38.47 0 0 0 5 5.5c5.184.174 10.184.674 15 1.5-8.621 3.37-16.621 2.203-24-3.5a135.382 135.382 0 0 1-18.5-20.5 236.379 236.379 0 0 0-13-26c-.493-1.634-.66-3.3-.5-5Z" style="opacity:1"/><path fill="#7a5c42" d="M195.5 127.5c1.901 4.725 2.401 9.725 1.5 15a75.117 75.117 0 0 1-7.5 7c.215-1.679-.452-2.679-2-3a42.63 42.63 0 0 0 7-5c1.265-1.014 1.931-2.514 2-4.5a226.755 226.755 0 0 1-1-9.5Z" style="opacity:1"/><path fill="#f0ecc5" d="M210.5 164.5c-.374-3.472.626-6.472 3-9-4.367-5.932-8.034-5.765-11 .5.259 1.261.926 2.261 2 3-.744 1.039-1.744 1.539-3 1.5a24.752 24.752 0 0 1-6.5-7 49.745 49.745 0 0 0-6.5 5l-2 1h-2l1-2a132.702 132.702 0 0 0 17.5-16c.497-2.31.663-4.643.5-7-1.175.219-2.175-.114-3-1 1.333-1.333 2.667-1.333 4 0a214.06 214.06 0 0 0 12 23c-1.671 2.992-3.671 5.659-6 8Z" style="opacity:1"/><path fill="#f7f1b5" d="M210.5 164.5c-.432 1.21-1.099 2.21-2 3a2.428 2.428 0 0 1-2-.5 68.974 68.974 0 0 0-5-6.5c1.256.039 2.256-.461 3-1.5-1.074-.739-1.741-1.739-2-3 2.966-6.265 6.633-6.432 11-.5-2.374 2.528-3.374 5.528-3 9Z" style="opacity:1"/><path fill="#5d261d" d="M175.5 134.5c-1.748 1.66-2.248 3.66-1.5 6 1.082 4.174 2.749 8.174 5 12 .759 1.563 1.926 2.563 3.5 3-1.355 3.018-3.688 4.351-7 4 .219 1.175-.114 2.175-1 3a297.395 297.395 0 0 0-19 14 82.901 82.901 0 0 0-12.5-14c.046-1.813-.12-3.479-.5-5-1.35 1.45-3.016 2.117-5 2l-1-2c8.094-1.188 15.428-4.188 22-9a293.927 293.927 0 0 1 17-14Z" style="opacity:1"/><path fill="#ae6d94" d="m136.5 157.5 1 2c1.649 5.283 3.316 10.617 5 16-2.481-2.947-4.481-6.281-6-10-1.719-1.289-3.053-.955-4 1v-9h4Z" style="opacity:1"/><path fill="#a77d61" d="M184.5 159.5h2a10.165 10.165 0 0 0-3 3 229.442 229.442 0 0 0-11.5 8c-.399-.228-.565-.562-.5-1a141.893 141.893 0 0 1 13-10Z" style="opacity:1"/><path fill="#9f7340" d="M201.5 160.5a68.974 68.974 0 0 1 5 6.5 2.428 2.428 0 0 0 2 .5 9359.98 9359.98 0 0 0-10 11 6.846 6.846 0 0 1 1-4 40.338 40.338 0 0 0-10-11c1.353-1.024 2.02-2.357 2-4-1.291.237-2.291-.096-3-1a49.745 49.745 0 0 1 6.5-5 24.752 24.752 0 0 0 6.5 7Z" style="opacity:1"/><path fill="#9f592f" d="M188.5 158.5c.709.904 1.709 1.237 3 1 .02 1.643-.647 2.976-2 4a40.338 40.338 0 0 1 10 11 6.846 6.846 0 0 0-1 4c0 .667-.333 1-1 1 .356-3.064-.477-5.731-2.5-8a229.475 229.475 0 0 0-9.5-8c-.342-.838-1.008-1.172-2-1a10.165 10.165 0 0 1 3-3l2-1Z" style="opacity:1"/><path fill="#9b3c1d" d="M185.5 163.5a229.475 229.475 0 0 1 9.5 8c2.023 2.269 2.856 4.936 2.5 8a120.911 120.911 0 0 1-8 12c-1.644 3.251-3.81 6.251-6.5 9a154.222 154.222 0 0 1-10.5 21c-1.857-1.761-2.857-4.094-3-7a84.246 84.246 0 0 0 8-13c-1.725-2.457-2.225-5.123-1.5-8a32.065 32.065 0 0 1 2.5 4c1.234-1.898.901-3.565-1-5a32.065 32.065 0 0 0 4-2.5c-1.706-5.793-.04-10.793 5-15a17.808 17.808 0 0 1-5-3.5c2.136-1.352 2.47-3.018 1-5 .379-1.713 1.379-2.713 3-3Z" style="opacity:1"/><path fill="#ebe4df" d="M213.5 169.5c.095 2.286.762 4.286 2 6 1.333 1.333 1.333 2.667 0 4h-1c-2.043-1.079-3.376-2.746-4-5 1.228-1.51 1.228-3.01 0-4.5a4.934 4.934 0 0 1 3-.5Z" style="opacity:1"/><path fill="#f8f0ae" d="M239.5 169.5a82.343 82.343 0 0 1 7.5 4c.498 3.317.665 6.65.5 10a171.367 171.367 0 0 1-31-11c-.886.825-1.219 1.825-1 3-1.238-1.714-1.905-3.714-2-6-.718-1.637-.884-3.303-.5-5a52.108 52.108 0 0 0 5.5-8c6.251 5.621 13.251 9.955 21 13Z" style="opacity:1"/><path fill="#918557" d="M203.5 179.5c1.719-.522 3.052-1.522 4-3-.065-.438.101-.772.5-1 2.549 1.09 3.383 2.757 2.5 5a15.418 15.418 0 0 0-7-1Z" style="opacity:1"/><path fill="#57241f" d="M142.5 175.5c1.788-.285 3.455.048 5 1-4.702.995-6.368 3.662-5 8l2-4a9.108 9.108 0 0 0 5 1v-3h3c-2.745 4.545-6.745 7.378-12 8.5 1.341 1.826.841 2.993-1.5 3.5-2.654-1.938-3.987-4.604-4-8-5.967-4.648-6.8-9.982-2.5-16 .947-1.955 2.281-2.289 4-1 1.519 3.719 3.519 7.053 6 10Z" style="opacity:1"/><path fill="#6e231c" d="M155.5 176.5c-.473 1.406-1.473 2.073-3 2h-3v3a9.108 9.108 0 0 1-5-1l-2 4c-1.368-4.338.298-7.005 5-8-1.545-.952-3.212-1.285-5-1-1.684-5.383-3.351-10.717-5-16 1.984.117 3.65-.55 5-2 .38 1.521.546 3.187.5 5a82.901 82.901 0 0 1 12.5 14Z" style="opacity:1"/><path fill="#985f82" d="M124.5 175.5h-3c-2.218 3.215-3.385 6.882-3.5 11a163.963 163.963 0 0 1-6.5 11c-1.011-1.902-1.178-3.902-.5-6 3.018-7.363 6.018-14.697 9-22a58.829 58.829 0 0 0 6.5-8c1.147 2.265 1.314 4.598.5 7-1.523 2.069-2.357 4.403-2.5 7Z" style="opacity:1"/><path fill="#ebe9bc" d="M210.5 174.5c.624 2.254 1.957 3.921 4 5a14.093 14.093 0 0 0 1 3.5 43.037 43.037 0 0 0-3 8.5h-1c-4.054.29-4.554-.377-1.5-2a28.043 28.043 0 0 1 1.5-5 11.637 11.637 0 0 0-5-2h-1c-1.051-.722-1.718-1.722-2-3 2.42-.208 4.753.126 7 1 .883-2.243.049-3.91-2.5-5-.399.228-.565.562-.5 1-.543-.06-.876-.393-1-1 1.189-.929 2.522-1.262 4-1Z" style="opacity:1"/><path fill="#957346" d="M247.5 183.5c.219 1.175-.114 2.175-1 3a21.028 21.028 0 0 0-7-2c2.117 2.155 4.784 3.155 8 3v4c-4.343-.39-8.009-2.223-11-5.5-3.876-.289-6.71-2.122-8.5-5.5-1.796 1.267-3.629 1.267-5.5 0-1.499 2.302-2.832 1.969-4-1-1.187 1.153-2.187 1.153-3 0 1.333-1.333 1.333-2.667 0-4-.219-1.175.114-2.175 1-3a171.367 171.367 0 0 0 31 11Z" style="opacity:1"/><path fill="#766251" d="M203.5 179.5c.282 1.278.949 2.278 2 3-2.797.467-4.131 2.133-4 5-1-1.333-2-1.333-3 0 .84-3.176 2.507-5.842 5-8Z" style="opacity:1"/><path fill="#371b0b" d="M239.5 184.5c-2.342-.004-4.342-.837-6-2.5 2.321-.008 4.321.825 6 2.5Z" style="opacity:1"/><path fill="#110d07" d="M205.5 182.5h1c2.312 2.509 1.645 4.509-2 6a5.576 5.576 0 0 0-3-1c-.131-2.867 1.203-4.533 4-5Z" style="opacity:1"/><path fill="#923622" d="M124.5 175.5c.958.453 1.792 1.119 2.5 2a137.338 137.338 0 0 0 6.5 12c.172.992-.162 1.658-1 2-5.204 2.529-9.537 6.196-13 11-1.238.912-2.572 1.079-4 .5a33.673 33.673 0 0 0-4-5.5 163.963 163.963 0 0 0 6.5-11c.115-4.118 1.282-7.785 3.5-11h3Z" style="opacity:1"/><path fill="#91361d" d="M183.5 162.5c.992-.172 1.658.162 2 1-1.621.287-2.621 1.287-3 3 1.47 1.982 1.136 3.648-1 5a17.808 17.808 0 0 0 5 3.5c-5.04 4.207-6.706 9.207-5 15a32.065 32.065 0 0 1-4 2.5c1.901 1.435 2.234 3.102 1 5a32.065 32.065 0 0 0-2.5-4c-.725 2.877-.225 5.543 1.5 8a84.246 84.246 0 0 1-8 13c.143 2.906 1.143 5.239 3 7-1.144 9.422-3.478 10.089-7 2-4.068-9.101-9.068-17.767-15-26-.93-3.593-3.263-5.259-7-5a429.866 429.866 0 0 1 18-16.5 110.962 110.962 0 0 0 10-6.5c-.065.438.101.772.5 1 3.775-2.8 7.608-5.466 11.5-8Z" style="opacity:1"/><path fill="#92562b" d="M214.5 179.5h1c.813 1.153 1.813 1.153 3 0 1.168 2.969 2.501 3.302 4 1 1.871 1.267 3.704 1.267 5.5 0 1.79 3.378 4.624 5.211 8.5 5.5 2.991 3.277 6.657 5.11 11 5.5v5h-1c-.206-2.049-1.039-2.383-2.5-1-2.071-2.916-3.405-2.582-4 1a4.934 4.934 0 0 1-.5-3 961.483 961.483 0 0 0-20.5-8c-2.455 1.243-3.622 3.243-3.5 6h-3a43.037 43.037 0 0 1 3-8.5 14.093 14.093 0 0 1-1-3.5Z" style="opacity:1"/><path fill="#775a3b" d="M198.5 187.5a12.066 12.066 0 0 0 3 4c-3.09.709-4.423 2.376-4 5h-3c-.539-3.916.794-6.916 4-9Z" style="opacity:1"/><path fill="#161013" d="M201.5 191.5c2.435.63 3.102 1.963 2 4-1.895 1.986-3.895 2.319-6 1-.423-2.624.91-4.291 4-5Z" style="opacity:1"/><path fill="#1c0e0c" d="M150.5 197.5c5.932 8.233 10.932 16.899 15 26 .369 2.493-.297 3.16-2 2a27.374 27.374 0 0 0-4-8c-2.359-4.869-5.693-9.035-10-12.5-4.153-.01-6.153 2.157-6 6.5a155.554 155.554 0 0 0-3 14 8783.491 8783.491 0 0 0-6 22 5.727 5.727 0 0 0-3-1 87.236 87.236 0 0 1 5.5-17 262.785 262.785 0 0 1 4.5-22c.126-1.7.793-3.2 2-4.5a32.298 32.298 0 0 0-5-4.5 41.464 41.464 0 0 0 6.5-4c2.085.624 3.918 1.624 5.5 3Z" style="opacity:1"/><path fill="#943a1c" d="M246.5 196.5v50c-20.361.655-40.361-.012-60-2 3.62-2.792 5.787-6.458 6.5-11 3.901-2.079 5.567-5.413 5-10a13.92 13.92 0 0 1 4-3c1.369-4.956 3.202-9.622 5.5-14-.186-4.992.814-9.659 3-14 .667 0 1-.333 1-1h4c-.122-2.757 1.045-4.757 3.5-6a961.483 961.483 0 0 1 20.5 8 4.934 4.934 0 0 0 .5 3c.595-3.582 1.929-3.916 4-1 1.461-1.383 2.294-1.049 2.5 1Z" style="opacity:1"/><path fill="#6a2b1b" d="M133.5 189.5c2.437 3.881 5.77 4.881 10 3 3.737-.259 6.07 1.407 7 5-1.582-1.376-3.415-2.376-5.5-3a41.464 41.464 0 0 1-6.5 4 32.298 32.298 0 0 1 5 4.5c-1.207 1.3-1.874 2.8-2 4.5a44.093 44.093 0 0 1-2-3c.584 7.592-2.583 9.926-9.5 7-.765-1.566-.598-2.899.5-4v3h7v-5h-3c-1.548-.321-2.215-1.321-2-3h5v-3c-3.288-.484-5.955.516-8 3-1.756 1.052-2.423 2.719-2 5h-4c-.337 3.026-2.004 5.026-5 6 3.232-7.567 8.565-13.234 16-17 .886-.825 1.219-1.825 1-3-1.679.215-2.679-.452-3-2 .838-.342 1.172-1.008 1-2Z" style="opacity:1"/><path fill="#bab077" d="M206.5 182.5c1.812.271 3.478.938 5 2a28.043 28.043 0 0 0-1.5 5c-3.054 1.623-2.554 2.29 1.5 2 0 .667-.333 1-1 1-2.442-.146-3.109.687-2 2.5a31.84 31.84 0 0 1-5 4.5c-1.333 1.667-1.333 3.333 0 5-.442 1.239-1.109 2.239-2 3-1.333 0-2-.667-2-2 .971-1.462.638-2.795-1-4v-3c-1.599.268-2.932-.066-4-1v-1h3c2.105 1.319 4.105.986 6-1 1.102-2.037.435-3.37-2-4a12.066 12.066 0 0 1-3-4c1-1.333 2-1.333 3 0a5.576 5.576 0 0 1 3 1c3.645-1.491 4.312-3.491 2-6Z" style="opacity:1"/><path fill="#975758" d="M134.5 205.5c-1.014 1.174-2.347 1.84-4 2-.801-1.542-1.134-3.208-1-5 2.045-2.484 4.712-3.484 8-3v3h-5c-.215 1.679.452 2.679 2 3Z" style="opacity:1"/><path fill="#1c1012" d="M198.5 201.5c1.638 1.205 1.971 2.538 1 4-1 .333-1.667 1-2 2-.992.172-1.658-.162-2-1a31.147 31.147 0 0 0-2-2c1.228-1.821 2.894-2.821 5-3Z" style="opacity:1"/><path fill="#785534" d="M194.5 197.5c1.068.934 2.401 1.268 4 1v3c-2.106.179-3.772 1.179-5 3a31.147 31.147 0 0 1 2 2c-1.478-.262-2.811.071-4 1a514.367 514.367 0 0 1 3 4c-3.469-.613-5.469.721-6 4a5.727 5.727 0 0 1-3 1 12.93 12.93 0 0 1 .5-5 304.79 304.79 0 0 0 8.5-14Z" style="opacity:1"/><path fill="#cbc278" d="M195.5 206.5c.342.838 1.008 1.172 2 1 .412 2.473-.588 3.806-3 4a514.367 514.367 0 0 0-3-4c1.189-.929 2.522-1.262 4-1Z" style="opacity:1"/><path fill="#341512" d="M189.5 191.5c1.787 3.622 1.12 6.622-2 9-.31-1.238-.81-1.238-1.5 0a137.523 137.523 0 0 0-12.5 26.5c.336 1.03 1.003 1.53 2 1.5 0 .667.333 1 1 1 .172.992-.162 1.658-1 2-.597-.639-1.43-.972-2.5-1-1.376.184-2.209.851-2.5 2-4-.667-6.333-3-7-7 1.703 1.16 2.369.493 2-2 3.522 8.089 5.856 7.422 7-2a154.222 154.222 0 0 0 10.5-21c2.69-2.749 4.856-5.749 6.5-9Z" style="opacity:1"/><path fill="#6f291c" d="M159.5 217.5c-1.44-.863-2.774-.863-4 0-1.45-1.35-2.117-3.016-2-5-2.858-1.007-5.358-2.673-7.5-5-.122 1.937-.955 3.27-2.5 4-.153-4.343 1.847-6.51 6-6.5 4.307 3.465 7.641 7.631 10 12.5Z" style="opacity:1"/><path fill="#1b0f10" d="M194.5 211.5c1.306 2.747.306 4.413-3 5a5.576 5.576 0 0 0-3-1c.531-3.279 2.531-4.613 6-4Z" style="opacity:1"/><path fill="#8b311d" d="M129.5 202.5c-.134 1.792.199 3.458 1 5-1.098 1.101-1.265 2.434-.5 4 6.917 2.926 10.084.592 9.5-7a44.093 44.093 0 0 0 2 3 262.785 262.785 0 0 0-4.5 22 87.236 87.236 0 0 0-5.5 17c-6.479.991-13.146 1.324-20 1v-6a1312.13 1312.13 0 0 1 5-25c-.073-1.527.594-2.527 2-3 2.996-.974 4.663-2.974 5-6h4c-.423-2.281.244-3.948 2-5Z" style="opacity:1"/><path fill="#15110d" d="M134.5 205.5h3v5h-7v-3c1.653-.16 2.986-.826 4-2Z" style="opacity:1"/><path fill="#986f44" d="M199.5 205.5c0 1.333.667 2 2 2a25.14 25.14 0 0 1-4 4.5 3.943 3.943 0 0 1 1 2 72.948 72.948 0 0 1-5 6.5 183.474 183.474 0 0 0-6.5 14c-3.664 2.82-5.831 6.487-6.5 11-3.687 1.843-7.687 2.51-12 2-.495-4.003 1.005-7.003 4.5-9 .153-2.651.987-4.984 2.5-7 .838-.342 1.172-1.008 1-2 3.677-1.849 5.51-4.849 5.5-9a19.552 19.552 0 0 0 3.5-4 5.727 5.727 0 0 0 3-1 5.576 5.576 0 0 1 3 1c3.306-.587 4.306-2.253 3-5 2.412-.194 3.412-1.527 3-4 .333-1 1-1.667 2-2Z" style="opacity:1"/><path fill="#996b6b" d="M114.5 206.5c-2.243 1.005-2.576 2.505-1 4.5l-4 7a112.363 112.363 0 0 0 0 14 19.294 19.294 0 0 0-3 6.5c2.554 2.831 2.554 5.665 0 8.5-2.671.833-5.004.333-7-1.5-.204-3.72.796-7.053 3-10a9.258 9.258 0 0 1-2-2.5 27.038 27.038 0 0 1 4-7.5c-1.512-.749-2.512-1.916-3-3.5a57.178 57.178 0 0 1 3-6.5l-1-2a75.78 75.78 0 0 1 6-8.5c-2.544-1.775-2.544-3.608 0-5.5.952 1.545 1.285 3.212 1 5 1.983-.343 3.317.324 4 2Z" style="opacity:1"/><path fill="#1e1111" d="M107.5 209.5c3.456 1.036 3.79 2.703 1 5-2.254-1.214-2.587-2.881-1-5Z" style="opacity:1"/><path fill="#170c11" d="M104.5 219.5c3-.333 4.333 1 4 4-3 .333-4.333-1-4-4Z" style="opacity:1"/><path fill="#a16287" d="M100.5 212.5a272.46 272.46 0 0 0-31 27c-2.067.763-3.734 2.096-5 4-.929 1.189-1.262 2.522-1 4h-4a8.43 8.43 0 0 1-4-.5 90.486 90.486 0 0 1 15-17c10.782-6.957 20.449-15.124 29-24.5 1.542-.801 3.208-1.134 5-1a22.573 22.573 0 0 1-4 8Z" style="opacity:1"/><path fill="#8f301f" d="M100.5 212.5a192.418 192.418 0 0 0-3 20.5 27.314 27.314 0 0 1 1 3.5c-2.143 2.963-3.143 6.296-3 10-9.34.166-18.673 0-28-.5 1.729-1.789 2.396-3.956 2-6.5a272.46 272.46 0 0 1 31-27Z" style="opacity:1"/><path fill="#93331c" d="M159.5 217.5a27.374 27.374 0 0 1 4 8c.667 4 3 6.333 7 7 .285 1.788-.048 3.455-1 5-3.715 2.016-5.715 5.016-6 9h-20a99.25 99.25 0 0 1-.5-20 241.128 241.128 0 0 0-2.5 10.5c1.221 2.835 1.221 5.668 0 8.5a4.934 4.934 0 0 1-3-.5 123.702 123.702 0 0 0 3-19.5 155.554 155.554 0 0 1 3-14c1.545-.73 2.378-2.063 2.5-4 2.142 2.327 4.642 3.993 7.5 5-.117 1.984.55 3.65 2 5 1.226-.863 2.56-.863 4 0Z" style="opacity:1"/><path fill="#180a0b" d="M210.5 192.5c-2.186 4.341-3.186 9.008-3 14a45.494 45.494 0 0 1-5.5 6 169.458 169.458 0 0 1-6.5 14c-3.652 2.676-4.986 6.342-4 11-4.885.231-6.552 2.564-5 7-.904.709-1.237 1.709-1 3h61a642.78 642.78 0 0 1-62 .5 16.58 16.58 0 0 1-4-2.5c.669-4.513 2.836-8.18 6.5-11a183.474 183.474 0 0 1 6.5-14 72.948 72.948 0 0 0 5-6.5 3.943 3.943 0 0 0-1-2 25.14 25.14 0 0 0 4-4.5c.891-.761 1.558-1.761 2-3-1.333-1.667-1.333-3.333 0-5a31.84 31.84 0 0 0 5-4.5c-1.109-1.813-.442-2.646 2-2.5Z" style="opacity:1"/><path fill="#813d29" d="M187.5 200.5a261.977 261.977 0 0 1-12 28c-.997.03-1.664-.47-2-1.5a137.523 137.523 0 0 1 12.5-26.5c.69-1.238 1.19-1.238 1.5 0Z" style="opacity:1"/><path fill="#150a09" d="M186.5 220.5h3c-.176 3.765-2.176 5.765-6 6 .115-2.447 1.115-4.447 3-6Z" style="opacity:1"/><path fill="#482315" d="M207.5 206.5c-2.298 4.378-4.131 9.044-5.5 14a13.92 13.92 0 0 0-4 3c.567 4.587-1.099 7.921-5 10-.713 4.542-2.88 8.208-6.5 11-1.552-4.436.115-6.769 5-7-.986-4.658.348-8.324 4-11a169.458 169.458 0 0 0 6.5-14 45.494 45.494 0 0 0 5.5-6Z" style="opacity:1"/><path fill="#160e13" d="M103.5 229.5c2.584.548 3.584 2.215 3 5h-3v-5Z" style="opacity:1"/><path fill="#4a1b16" d="M116.5 216.5a1312.13 1312.13 0 0 0-5 25 116.02 116.02 0 0 1 0-13.5c1.018-4.259 2.685-8.092 5-11.5Z" style="opacity:1"/><path fill="#1b1012" d="M180.5 230.5h3c.357 3.485-1.143 5.818-4.5 7-1.301-.598-2.135-1.598-2.5-3 1.688-1.021 3.021-2.355 4-4Z" style="opacity:1"/><path fill="#1f1413" d="M101.5 240.5c3.752.001 4.752 1.667 3 5-2.273-.875-3.273-2.542-3-5Z" style="opacity:1"/><path fill="#12070d" d="M175.5 240.5c1.976.927 2.309 2.26 1 4-1.578 1.14-3.244 1.64-5 1.5-.951-.718-1.117-1.551-.5-2.5a29.01 29.01 0 0 0 4.5-3Z" style="opacity:1"/><path fill="#853624" d="M140.5 225.5a123.702 123.702 0 0 1-3 19.5 4.934 4.934 0 0 0 3 .5c1.221-2.832 1.221-5.665 0-8.5a241.128 241.128 0 0 1 2.5-10.5 99.25 99.25 0 0 0 .5 20h20c-9.486.994-19.152 1.327-29 1a8783.491 8783.491 0 0 1 6-22Z" style="opacity:1"/><path fill="#833428" d="M69.5 239.5c.396 2.544-.271 4.711-2 6.5 9.327.5 18.66.666 28 .5-10.487.994-21.154 1.328-32 1-.262-1.478.071-2.811 1-4 1.266-1.904 2.933-3.237 5-4Z" style="opacity:1"/><path fill="#803d25" d="M246.5 196.5h1a650.602 650.602 0 0 1-1 51h-61c-.237-1.291.096-2.291 1-3 19.639 1.988 39.639 2.655 60 2v-50Z" style="opacity:1"/></svg>