<svg xmlns="http://www.w3.org/2000/svg" xmlns:xlink="http://www.w3.org/1999/xlink" height="512" width="512"><defs><linearGradient xlink:href="#d" id="m" gradientUnits="userSpaceOnUse" gradientTransform="matrix(1.12731 0 0 1.12731 -140.467 545.785)" x1="843.497" y1="461.463" x2="843.497" y2="29.463"/><linearGradient id="c" gradientUnits="userSpaceOnUse" x1="64.478" y1="56.301" x2="78.466" y2="48.085"><stop offset="0" style="stop-color:#ee8d02;stop-opacity:1"/><stop offset="1" style="stop-color:#f9a01f;stop-opacity:1"/></linearGradient><linearGradient id="a" gradientUnits="userSpaceOnUse" x1="64.478" y1="56.301" x2="78.466" y2="48.085"><stop offset="0" style="stop-color:#fd8700;stop-opacity:1"/><stop offset=".859" style="stop-color:#ff9500;stop-opacity:1"/><stop offset="1" style="stop-color:#ff9a01;stop-opacity:1"/></linearGradient><linearGradient x1="45.448" y1="92.54" x2="45.448" y2="7.017" id="d" gradientUnits="userSpaceOnUse" gradientTransform="matrix(1.00587 0 0 .99417 100 0)"><stop style="stop-color:#000;stop-opacity:1" offset="0"/><stop style="stop-color:#000;stop-opacity:.58823532" offset="1"/></linearGradient><linearGradient x1="45.448" y1="92.54" x2="45.448" y2="7.017" id="e" gradientUnits="userSpaceOnUse" gradientTransform="matrix(1.00587 0 0 .99417 100 0)"><stop style="stop-color:#000;stop-opacity:1" offset="0"/><stop style="stop-color:#000;stop-opacity:.58823532" offset="1"/></linearGradient><linearGradient xlink:href="#d" id="i" gradientUnits="userSpaceOnUse" gradientTransform="matrix(1.1007 0 0 1.1007 -124.162 546.57)" x1="843.497" y1="461.463" x2="843.497" y2="29.463"/><linearGradient xlink:href="#d" id="j" gradientUnits="userSpaceOnUse" gradientTransform="matrix(1.1088 0 0 1.1088 -129.124 546.331)" x1="843.497" y1="461.463" x2="843.497" y2="29.463"/><linearGradient xlink:href="#d" id="k" gradientUnits="userSpaceOnUse" gradientTransform="matrix(1.11806 0 0 1.11806 -134.795 546.058)" x1="843.497" y1="461.463" x2="843.497" y2="29.463"/><linearGradient xlink:href="#d" id="l" gradientUnits="userSpaceOnUse" gradientTransform="matrix(1.13657 0 0 1.13657 -146.138 545.513)" x1="843.497" y1="461.463" x2="843.497" y2="29.463"/><linearGradient y2="48.085" x2="78.466" y1="56.301" x1="64.478" gradientUnits="userSpaceOnUse" id="b"><stop style="stop-color:#5a5a5a;stop-opacity:1" offset="0"/><stop style="stop-color:#5f5f5f;stop-opacity:1" offset="1"/></linearGradient><linearGradient id="h"><stop style="stop-color:#fff;stop-opacity:1" offset="0"/><stop style="stop-color:#fff;stop-opacity:0" offset="1"/></linearGradient><linearGradient id="f"><stop style="stop-color:#000;stop-opacity:1" offset="0"/><stop style="stop-color:#fff;stop-opacity:.2" offset="1"/></linearGradient><linearGradient xlink:href="#f" id="q" gradientUnits="userSpaceOnUse" x1="908.204" y1="1061.424" x2="910.421" y2="834.18"/><linearGradient id="g"><stop style="stop-color:#fff;stop-opacity:1" offset="0"/><stop style="stop-color:#fff;stop-opacity:0" offset="1"/></linearGradient><linearGradient xlink:href="#h" id="r" gradientUnits="userSpaceOnUse" gradientTransform="translate(-597.594 -5.469)" x1="1510.171" y1="598.186" x2="1513.477" y2="898.645"/><radialGradient xlink:href="#b" id="n" gradientUnits="userSpaceOnUse" gradientTransform="matrix(1.0926 0 0 1.0926 -23.697 -23.704)" cx="255.994" cy="256" fx="255.994" fy="256" r="216"/><radialGradient xlink:href="#c" id="o" gradientUnits="userSpaceOnUse" gradientTransform="matrix(1.0926 0 0 1.0926 -23.697 -23.704)" cx="255.994" cy="256" fx="255.994" fy="256" r="216"/><radialGradient xlink:href="#b" id="p" gradientUnits="userSpaceOnUse" gradientTransform="matrix(1.0926 0 0 1.0926 -23.697 -23.704)" cx="255.994" cy="256" fx="255.994" fy="256" r="216"/></defs><text xml:space="preserve" style="font-size:75px;font-style:normal;font-variant:normal;font-weight:400;font-stretch:normal;line-height:125%;letter-spacing:0;word-spacing:0;fill:#000;fill-opacity:1;stroke:none;font-family:Gentium Book Basic;-inkscape-font-specification:Gentium Book Basic" x="390.962" y="205.03"/><path style="opacity:.25;color:#000;fill:url(#i);fill-opacity:1;fill-rule:nonzero;stroke:none;stroke-width:1.5;marker:none;visibility:visible;display:inline;overflow:visible;enable-background:accumulate" d="M649.063 579C594.182 579 550 623.182 550 678.063V800.23h221.23V579H649.062zm155.207 0v475.5h122.168c54.88 0 99.062-44.182 99.062-99.063V678.063c0-54.88-44.182-99.062-99.063-99.062H804.27zM550 833.27v122.168c0 54.88 44.182 99.062 99.063 99.062H771.23V833.27H550z" transform="translate(-530 -559)"/><path d="M649.792 579C594.507 579 550 623.507 550 678.792v123.066h222.858V579H649.792zm156.35 0v479h123.066c55.285 0 99.792-44.507 99.792-99.792V678.792c0-55.285-44.507-99.792-99.792-99.792H806.142zM550 835.142v123.066c0 55.285 44.507 99.792 99.792 99.792h123.066V835.142H550z" style="opacity:.25;color:#000;fill:url(#j);fill-opacity:1;fill-rule:nonzero;stroke:none;stroke-width:1.5;marker:none;visibility:visible;display:inline;overflow:visible;enable-background:accumulate" transform="translate(-530 -559)"/><path style="opacity:.2;color:#000;fill:url(#k);fill-opacity:1;fill-rule:nonzero;stroke:none;stroke-width:1.5;marker:none;visibility:visible;display:inline;overflow:visible;enable-background:accumulate" d="M650.625 579C594.879 579 550 623.879 550 679.625v124.094h224.719V579H650.625zm157.656 0v483h124.094c55.746 0 100.625-44.879 100.625-100.625v-281.75C1033 623.879 988.121 579 932.375 579H808.281zM550 837.281v124.094C550 1017.121 594.879 1062 650.625 1062h124.094V837.281H550z" transform="translate(-530 -559)"/><path d="M652.292 579C595.622 579 550 624.622 550 681.292V807.44h228.441V579h-126.15zm160.267 0v491h126.15c56.669 0 102.291-45.622 102.291-102.292V681.292C1041 624.622 995.378 579 938.708 579H812.56zM550 841.559v126.15C550 1024.377 595.622 1070 652.292 1070H778.44V841.559H550z" style="opacity:.07999998;color:#000;fill:url(#l);fill-opacity:1;fill-rule:nonzero;stroke:none;stroke-width:1.5;marker:none;visibility:visible;display:inline;overflow:visible;enable-background:accumulate" transform="translate(-530 -559)"/><path style="opacity:.1;color:#000;fill:url(#m);fill-opacity:1;fill-rule:nonzero;stroke:none;stroke-width:1.5;marker:none;visibility:visible;display:inline;overflow:visible;enable-background:accumulate" d="M651.458 579C595.25 579 550 624.25 550 680.458V805.58h226.58V579H651.458zm158.962 0v487h125.122C991.75 1066 1037 1020.75 1037 964.542V680.458C1037 624.25 991.75 579 935.542 579H810.42zM550 839.42v125.122C550 1020.75 595.25 1066 651.458 1066H776.58V839.42H550z" transform="translate(-530 -559)"/><g><path style="color:#000;fill:url(#n);fill-opacity:1;fill-rule:nonzero;stroke:none;stroke-width:1.5;marker:none;visibility:visible;display:inline;overflow:visible;enable-background:accumulate" d="M20 272.389v121.278C20 448.143 63.857 492 118.333 492h121.278V272.389H20z"/><path style="color:#000;fill:url(#o);fill-opacity:1;fill-rule:nonzero;stroke:none;stroke-width:1.5;marker:none;visibility:visible;display:inline;overflow:visible;enable-background:accumulate" d="M272.389 20v472h121.278C448.143 492 492 448.143 492 393.667V118.333C492 63.857 448.143 20 393.667 20H272.389z"/><path style="font-size:300px;fill:#000;fill-opacity:.3137255;font-family:Aller;-inkscape-font-specification:Aller" d="M129.806 306.806c-2.623 0-5.143.123-7.546.341-2.185.219-4.46.52-6.863.956v59.683H60.972c-.874 4.37-1.297 9.164-1.297 14.408 0 5.464.423 10.38 1.297 14.75l54.425 54.254v5.088L151.111 492h88.5v-88.841l-95.055-95.056a102.047 102.047 0 0 0-7.546-.956 79.621 79.621 0 0 0-7.204-.341z"/><path style="color:#000;fill:url(#p);fill-opacity:1;fill-rule:nonzero;stroke:none;stroke-width:1.5;marker:none;visibility:visible;display:inline;overflow:visible;enable-background:accumulate" d="M118.333 20C63.857 20 20 63.857 20 118.333v121.278h219.611V20H118.333z"/><path style="font-size:300px;fill:#000;fill-opacity:.23529412;font-family:Aller;-inkscape-font-specification:Aller" d="M312.542 209.77c-.437 2.185-.772 4.705-.99 7.545a316171.995 316171.995 0 0 0 0 15.4c.218 2.621.553 4.93.99 6.896l32.846 32.778h-32.846c-.437 2.185-.772 4.705-.99 7.546a316172.159 316172.159 0 0 0 0 15.398c.218 2.623.553 4.93.99 6.897l155.694 155.695C483.06 440.717 492 418.265 492 393.667V250.264l-40.494-40.494H312.542z"/><g style="font-size:81.94444274999999323px;font-style:normal;font-variant:normal;font-weight:400;font-stretch:normal;line-height:125%;letter-spacing:0;word-spacing:0;fill:#fff;fill-opacity:1;stroke:none;font-family:Gentium Book Basic;-inkscape-font-specification:Gentium Book Basic"><path d="M451.52 209.783c.436 2.186.764 4.699.983 7.54.218 2.622.327 5.135.328 7.538 0 2.404-.11 5.026-.328 7.867-.219 2.622-.547 4.917-.984 6.883H312.542c-.437-1.966-.765-4.26-.984-6.883a343205.764 343205.764 0 0 1 0-15.406c.219-2.84.547-5.353.984-7.539h138.977m0 62.606c.437 2.185.765 4.698.984 7.539.218 2.622.327 5.135.328 7.539 0 2.403-.11 5.026-.328 7.866-.219 2.623-.547 4.917-.984 6.884H312.542c-.437-1.967-.765-4.261-.984-6.884a343206.337 343206.337 0 0 1 0-15.405c.219-2.84.547-5.354.984-7.54h138.977" style="font-size:327.7777709999999729px;font-family:Aller;-inkscape-font-specification:Aller;fill:#fff"/></g><path style="font-size:300px;fill:#000;fill-opacity:.3137255;font-family:Aller;-inkscape-font-specification:Aller" d="M87.365 114.885c-.437 2.185-.772 4.705-.99 7.546-.219 2.622-.341 5.142-.341 7.545 0 2.404.122 5.013.341 7.853.218 2.623.553 4.93.99 6.897l94.885 94.885h57.361V182.25l-67.365-67.365h-84.88z"/><g style="font-size:81.94444274999999323px;font-style:normal;font-variant:normal;font-weight:400;font-stretch:normal;line-height:125%;letter-spacing:0;word-spacing:0;fill:#fff;fill-opacity:1;stroke:none;font-family:Gentium Book Basic;-inkscape-font-specification:Gentium Book Basic"><path d="M172.253 114.892c.437 2.185.764 4.698.983 7.539.219 2.622.328 5.135.328 7.538 0 2.404-.11 5.026-.328 7.867-.219 2.622-.546 4.917-.983 6.883H87.358c-.437-1.966-.764-4.26-.983-6.883-.219-2.84-.328-5.463-.328-7.867 0-2.403.11-4.916.328-7.538.219-2.841.546-5.354.983-7.54h84.895" style="font-size:327.7777709999999729px;font-family:Aller;-inkscape-font-specification:Aller;fill:#fff"/></g><g style="font-size:81.94444274999999323px;font-style:normal;font-variant:normal;font-weight:400;font-stretch:normal;line-height:125%;letter-spacing:0;word-spacing:0;fill:#fff;fill-opacity:1;stroke:none;font-family:Gentium Book Basic;-inkscape-font-specification:Gentium Book Basic"><path d="M115.383 396.944h-54.41c-.875-4.37-1.312-9.286-1.312-14.75 0-5.244.437-10.051 1.311-14.422h54.411v-59.655a87.057 87.057 0 0 1 6.884-.984 83.463 83.463 0 0 1 7.539-.327c2.403 0 4.807.109 7.21.327 2.404.22 4.917.547 7.54.984v59.655h54.083c.437 2.404.765 4.808.983 7.211.219 2.404.328 4.808.328 7.211 0 2.404-.11 4.917-.328 7.54a81.7 81.7 0 0 1-.983 7.21h-54.083v59.328a102.21 102.21 0 0 1-7.54.984 79.583 79.583 0 0 1-7.21.327c-5.464 0-10.27-.437-14.423-1.31v-59.329" style="font-size:327.7777709999999729px;font-family:Aller;-inkscape-font-specification:Aller;fill:#fff"/></g></g><g><path style="opacity:.2;color:#000;fill:url(#q);fill-opacity:1;fill-rule:nonzero;stroke:none;stroke-width:1.5;marker:none;visibility:visible;display:inline;overflow:visible;enable-background:accumulate" d="M771.625 591.625a99.89 99.89 0 0 0-17.063 1.469c-.134.023-.271.038-.406.062-.798.142-1.614.308-2.406.469-1.603.326-3.177.69-4.75 1.094-.966.247-1.952.505-2.906.781a97.81 97.81 0 0 0-3.532 1.094c-.38.125-.747.276-1.125.406a97.03 97.03 0 0 0-3.937 1.438 97.54 97.54 0 0 0-2.219.906 98.42 98.42 0 0 0-4.343 1.937c-.013.006-.02.026-.032.031a96.758 96.758 0 0 0-4.218 2.157c-.697.377-1.408.762-2.094 1.156a98.482 98.482 0 0 0-4.031 2.437c-.012.008-.02.024-.032.032-.652.418-1.296.848-1.937 1.28-.012.009-.02.024-.031.032a97.414 97.414 0 0 0-3.844 2.719 98.384 98.384 0 0 0-7.281 6 98.2 98.2 0 0 0-3.407 3.25 98.2 98.2 0 0 0-3.25 3.406 97.439 97.439 0 0 0-1.562 1.75c-.005.006.005.026 0 .031a97.932 97.932 0 0 0-1.5 1.782l-.031.03a98.252 98.252 0 0 0-5.625 7.532c-.156.231-.315.455-.47.688-.281.426-.567.85-.843 1.28-.005.008.005.025 0 .032a97.837 97.837 0 0 0-2.437 4.031c-.007.013-.025.02-.032.031a98.637 98.637 0 0 0-1.875 3.438c-.125.24-.251.478-.375.719-.004.008.004.023 0 .03-.356.7-.722 1.386-1.062 2.095-.004.008.004.022 0 .03a97.98 97.98 0 0 0-3.719 8.813 97.32 97.32 0 0 0-1.344 4.032c-.057.18-.131.35-.187.53-.003.01.003.023 0 .032a97.988 97.988 0 0 0-1.906 7.031 98.362 98.362 0 0 0-.969 4.813 98.083 98.083 0 0 0-.75 4.875v.031c-.102.812-.199 1.62-.281 2.437v.032a100.11 100.11 0 0 0-.219 2.468v.032a100.83 100.83 0 0 0-.281 7.562V811.25h5V687.874c0-53.322 42.927-96.25 96.25-96.25h-2.938zm272.438 0c53.322 0 96.25 42.928 96.25 96.25v269.5c0 53.322-42.928 96.25-96.25 96.25H925.687v10h121.282a101.417 101.417 0 0 0 7.562-.281c1.67-.126 3.356-.292 5-.5.822-.104 1.622-.22 2.438-.344a98.522 98.522 0 0 0 7.25-1.375 97.929 97.929 0 0 0 11.625-3.437 97.977 97.977 0 0 0 8.812-3.719 99.52 99.52 0 0 0 2.156-1.063 98.394 98.394 0 0 0 4.157-2.25c.012-.01.019-.024.03-.03a97.781 97.781 0 0 0 4.032-2.438c.442-.283.876-.554 1.313-.844.219-.145.438-.29.656-.437.012-.01.019-.023.03-.031a97.323 97.323 0 0 0 3.845-2.72c.63-.47 1.256-.951 1.875-1.437a99.06 99.06 0 0 0 2.812-2.312 98.774 98.774 0 0 0 2.594-2.25 98.017 98.017 0 0 0 3.406-3.25 98.568 98.568 0 0 0 4.813-5.156c.01-.01-.01-.025 0-.031a98.52 98.52 0 0 0 7.187-9.344v-.031c.286-.424.564-.853.844-1.281.152-.234.318-.453.469-.688a98.496 98.496 0 0 0 2.437-4.031 99.3 99.3 0 0 0 1.156-2.063v-.03c.13-.238.248-.48.375-.72a97.543 97.543 0 0 0 1.782-3.5c.01-.012.025-.019.03-.03.341-.709.677-1.408 1-2.126v-.03a97.07 97.07 0 0 0 3.282-8.344c.065-.19.154-.372.219-.563v-.031c.51-1.515.999-3.046 1.437-4.594v-.031c.218-.77.426-1.536.625-2.313v-.03c.048-.188.11-.375.156-.563.344-1.379.652-2.786.938-4.188.161-.791.326-1.607.469-2.406v-.031a98.08 98.08 0 0 0 .406-2.406v-.032c.014-.093.017-.187.03-.28.228-1.53.438-3.074.595-4.626.166-1.646.29-3.33.375-5v-.031c.042-.83.072-1.665.094-2.5v-.031c.02-.846.03-1.68.03-2.532V689.971a100.5 100.5 0 0 0-.28-7.563v-.031a98.244 98.244 0 0 0-.22-2.469c0-.01.002-.02 0-.03a99.234 99.234 0 0 0-.624-4.907 99.413 99.413 0 0 0-.875-4.844v-.031a98.65 98.65 0 0 0-1.094-4.75 98.287 98.287 0 0 0-1.313-4.656v-.032c-.238-.77-.493-1.518-.75-2.28a98.041 98.041 0 0 0-1.656-4.532 97.04 97.04 0 0 0-1.844-4.406 97.88 97.88 0 0 0-4.343-8.47v-.03a97.884 97.884 0 0 0-3.75-6v-.031a98.21 98.21 0 0 0-5.657-7.532c0-.006.01-.025 0-.03-.495-.602-1.022-1.194-1.53-1.782-.01-.006.01-.026 0-.031a97.96 97.96 0 0 0-4.813-5.157 98.102 98.102 0 0 0-3.407-3.25c-.587-.533-1.18-1.043-1.78-1.562-.595-.515-1.176-1.031-1.782-1.531a98.322 98.322 0 0 0-3.719-2.907 98.416 98.416 0 0 0-9.875-6.5c-.01-.005-.023.005-.03 0a96.902 96.902 0 0 0-2.064-1.156 97.578 97.578 0 0 0-8.593-4.125 97.574 97.574 0 0 0-11.375-4 97.446 97.446 0 0 0-2.344-.625 98.69 98.69 0 0 0-4.75-1.094c-.01-.002-.02.002-.03 0a97.554 97.554 0 0 0-2.407-.468 99.52 99.52 0 0 0-17.438-1.532h-2.906zm-370.75 252.406v121.282c0 .85.01 1.685.03 2.53v.032c.022.835.053 1.67.094 2.5v.031a99.44 99.44 0 0 0 1 9.906c.002.01-.002.022 0 .032.123.805.265 1.607.407 2.406.002.01-.002.021 0 .031.286 1.607.606 3.203.968 4.781.002.01-.002.022 0 .032.363 1.578.782 3.14 1.22 4.687.002.01-.004.022 0 .031.217.77.451 1.552.687 2.313a97.142 97.142 0 0 0 1.53 4.562 97.593 97.593 0 0 0 2.72 6.657c.004.01-.004.023 0 .03.323.718.66 1.417 1 2.125.004.01-.004.023 0 .031.34.709.705 1.427 1.062 2.125a97.746 97.746 0 0 0 3.469 6.22c.41.675.825 1.335 1.25 2 .005.01-.005.023 0 .03a98.918 98.918 0 0 0 2.656 3.907 97.915 97.915 0 0 0 2.813 3.78 97.882 97.882 0 0 0 3 3.626c.005.01-.005.025 0 .03.509.589 1.04 1.175 1.562 1.75a98.189 98.189 0 0 0 3.25 3.407 98.115 98.115 0 0 0 3.406 3.25c.582.528 1.188 1.048 1.782 1.563a97.991 97.991 0 0 0 3.625 3 98.382 98.382 0 0 0 7.687 5.468c.672.43 1.348.836 2.031 1.25a97.752 97.752 0 0 0 6.22 3.47c.706.36 1.407.717 2.124 1.062a97.463 97.463 0 0 0 8.844 3.718 97.898 97.898 0 0 0 11.594 3.438h.03a98.462 98.462 0 0 0 17.157 2.375h.031a98.462 98.462 0 0 0 5.063.125h121.281v-10H774.562c-53.322 0-96.25-42.928-96.25-96.25V844.03h-5z" transform="translate(-653.312 -571.625)"/><path style="opacity:.5;color:#000;fill:url(#r);fill-opacity:1;fill-rule:nonzero;stroke:none;stroke-width:1.5;marker:none;visibility:visible;display:inline;overflow:visible;enable-background:accumulate" d="M771.625 591.625c-6.81 0-13.463.694-19.875 2a98.72 98.72 0 0 0-4.188.969c-.984.245-1.965.475-2.937.75-.769.218-1.551.452-2.313.687-.964.3-1.923.642-2.875.97-2.614.898-5.179 1.892-7.687 3-.455.2-.923.385-1.375.593a96.794 96.794 0 0 0-5.719 2.875 97.766 97.766 0 0 0-4.094 2.344c-.675.41-1.366.824-2.03 1.25a98.882 98.882 0 0 0-3.907 2.656 97.76 97.76 0 0 0-3.781 2.812c-.619.486-1.238 1-1.844 1.5-.606.5-1.218.986-1.813 1.5-1.775 1.54-3.495 3.183-5.156 4.844-.555.555-1.114 1.088-1.656 1.656-2.173 2.28-4.21 4.675-6.156 7.157-.486.618-.967 1.213-1.438 1.843-.005.007.005.025 0 .032a97.645 97.645 0 0 0-5.28 7.812 97.472 97.472 0 0 0-5.532 10.531c-.328.727-.659 1.452-.969 2.188-.004.009.004.022 0 .031-.306.727-.617 1.452-.906 2.188-.004.009.003.022 0 .03a97.128 97.128 0 0 0-.844 2.22c-.003.008.003.022 0 .03a97.097 97.097 0 0 0-1.531 4.563 97.665 97.665 0 0 0-1.907 7.031 98.373 98.373 0 0 0-.968 4.813 99.031 99.031 0 0 0-.75 4.875 99.076 99.076 0 0 0-.282 2.5 98.173 98.173 0 0 0-.218 2.469 100.02 100.02 0 0 0-.25 5.062c-.022.846-.032 1.68-.032 2.531V811.25h5V697.876c0-53.323 42.928-96.25 96.25-96.25h118.344v-10h-121.28zm154.062 0v10h118.376c53.322 0 96.25 42.928 96.25 96.25v269.5c0 53.323-42.928 96.25-96.25 96.25h2.906a99.7 99.7 0 0 0 15-1.125 99.055 99.055 0 0 0 2.437-.406 98.385 98.385 0 0 0 4.813-.969 98.083 98.083 0 0 0 7.031-1.906c.77-.239 1.55-.493 2.312-.75.763-.257 1.528-.507 2.282-.782a97.596 97.596 0 0 0 6.656-2.718 98.293 98.293 0 0 0 8.469-4.344c.686-.394 1.387-.778 2.062-1.187a98.676 98.676 0 0 0 3.97-2.563c.653-.44 1.325-.887 1.968-1.344a97.817 97.817 0 0 0 3.781-2.812 98.56 98.56 0 0 0 7.125-6.188c.569-.542 1.132-1.1 1.688-1.656a98.197 98.197 0 0 0 3.25-3.406c1.59-1.75 3.1-3.544 4.562-5.407.48-.612.971-1.22 1.438-1.843.01-.01 0-.025 0-.031a97.59 97.59 0 0 0 4.03-5.813c.431-.672.837-1.348 1.25-2.03.41-.677.826-1.346 1.22-2.032.393-.686.778-1.366 1.156-2.063a97.937 97.937 0 0 0 2.156-4.25 98.458 98.458 0 0 0 1.969-4.343v-.031c.306-.727.617-1.452.906-2.188v-.03c.29-.737.572-1.475.844-2.22v-.03c.275-.755.555-1.488.812-2.25a97.651 97.651 0 0 0 2.063-7 97.37 97.37 0 0 0 1.094-4.75c.163-.802.325-1.598.468-2.407a99.474 99.474 0 0 0 1.531-17.437V689.939a99.467 99.467 0 0 0-1.531-17.438 97.278 97.278 0 0 0-.468-2.406 98.701 98.701 0 0 0-.97-4.313c-.04-.158-.084-.31-.124-.468a97.142 97.142 0 0 0-.625-2.344 97.281 97.281 0 0 0-2.25-6.906 98.076 98.076 0 0 0-.844-2.22v-.03c-.29-.736-.6-1.461-.906-2.188v-.031c-.093-.22-.187-.438-.281-.656a97.024 97.024 0 0 0-1.688-3.688 97.92 97.92 0 0 0-2.156-4.25 97.3 97.3 0 0 0-3.625-6.125 98.148 98.148 0 0 0-3.438-5.031c-.197-.27-.393-.545-.593-.813-.472-.63-.952-1.225-1.438-1.843a98.133 98.133 0 0 0-6.188-7.157 94.799 94.799 0 0 0-1.624-1.656 99.17 99.17 0 0 0-5.188-4.844c-.594-.514-1.175-1-1.781-1.5-.607-.5-1.225-1.014-1.844-1.5a97.838 97.838 0 0 0-3.781-2.812c-.65-.461-1.308-.898-1.969-1.344-.654-.44-1.304-.887-1.969-1.312a96.767 96.767 0 0 0-4.062-2.438 97.142 97.142 0 0 0-2.063-1.156c-.697-.378-1.387-.764-2.094-1.125a98.154 98.154 0 0 0-4.312-2.063 97.638 97.638 0 0 0-8.938-3.5 96.374 96.374 0 0 0-4.625-1.437 97.321 97.321 0 0 0-2.343-.625 98.722 98.722 0 0 0-4.75-1.094c-.01-.002-.021.002-.031 0-.802-.163-1.598-.325-2.406-.469a98.058 98.058 0 0 0-7.375-1.03 97.553 97.553 0 0 0-5-.376c-1.681-.084-3.36-.125-5.063-.125H925.688zM673.312 844.031v121.282a100.45 100.45 0 0 0 .5 10.062 98.536 98.536 0 0 0 1.032 7.375c.287 1.617.604 3.224.968 4.813a97.651 97.651 0 0 0 1.907 7.03c.414 1.34.843 2.687 1.312 4 .068.192.15.373.22.563.002.01-.004.022 0 .031.27.745.554 1.483.843 2.22.004.01-.004.021 0 .03.289.736.6 1.46.906 2.188a97.187 97.187 0 0 0 1.969 4.375c.344.716.701 1.418 1.062 2.125a96.685 96.685 0 0 0 2.25 4.187c.394.687.81 1.356 1.22 2.031.413.684.819 1.36 1.25 2.032a98.153 98.153 0 0 0 3.436 5.03c.193.264.4.52.594.782.005.01-.005.024 0 .031.466.624.957 1.231 1.438 1.844 1.947 2.481 3.983 4.876 6.156 7.156.542.569 1.101 1.1 1.656 1.656.556.556 1.12 1.114 1.688 1.657.568.541 1.137 1.096 1.718 1.625a97.797 97.797 0 0 0 1.75 1.562 97.934 97.934 0 0 0 3.657 3 97.74 97.74 0 0 0 3.781 2.813c.642.456 1.284.903 1.937 1.343.654.441 1.305.887 1.97 1.313a96.684 96.684 0 0 0 4.062 2.437 96.98 96.98 0 0 0 2.062 1.157 97.3 97.3 0 0 0 4.25 2.187c.717.344 1.43.673 2.156 1h.032a97.556 97.556 0 0 0 6.656 2.719c.754.275 1.488.524 2.25.781a96.374 96.374 0 0 0 4.625 1.438h.031a98.03 98.03 0 0 0 4.688 1.218h.031a99.935 99.935 0 0 0 22.25 2.5h2.937c-53.322 0-96.25-42.927-96.25-96.25V844.031h-5z" transform="translate(-653.312 -571.625)"/></g></svg>