<?xml version="1.0" encoding="UTF-8"?>
<!DOCTYPE svg PUBLIC "-//W3C//DTD SVG 1.1//EN" "http://www.w3.org/Graphics/SVG/1.1/DTD/svg11.dtd">
<svg xmlns="http://www.w3.org/2000/svg" version="1.1" width="300px" height="300px" style="shape-rendering:geometricPrecision; text-rendering:geometricPrecision; image-rendering:optimizeQuality; fill-rule:evenodd; clip-rule:evenodd" xmlns:xlink="http://www.w3.org/1999/xlink">
<g><path style="opacity:1" fill="#010101" d="M -0.5,-0.5 C 99.5,-0.5 199.5,-0.5 299.5,-0.5C 299.5,99.5 299.5,199.5 299.5,299.5C 199.5,299.5 99.5,299.5 -0.5,299.5C -0.5,199.5 -0.5,99.5 -0.5,-0.5 Z"/></g>
<g><path style="opacity:1" fill="#fcfcfc" d="M 119.5,209.5 C 121.5,210.167 123.5,210.833 125.5,211.5C 121.113,216.108 118.446,221.608 117.5,228C 106.15,233.499 95.4836,232.499 85.5,225C 81.3111,218.965 76.6444,213.298 71.5,208C 66.641,204.599 61.3077,203.266 55.5,204C 54.6433,204.689 53.9767,205.522 53.5,206.5C 58.0539,210.709 62.5539,215.043 67,219.5C 70.2547,225.008 73.2547,230.675 76,236.5C 79.827,241.841 84.9937,245.341 91.5,247C 100.186,247.632 108.852,247.466 117.5,246.5C 117.666,255.506 117.5,264.506 117,273.5C 114.749,277.126 111.582,278.293 107.5,277C 55.8916,256.975 26.3916,219.475 19,164.5C 16.8531,103.012 43.3531,58.8458 98.5,32C 146.159,14.0008 190.492,20.0008 231.5,50C 279.834,92.838 292.668,144.671 270,205.5C 254.15,239.018 228.983,262.518 194.5,276C 189.823,278.599 185.989,277.766 183,273.5C 182.667,257.167 182.333,240.833 182,224.5C 180.416,219.5 177.916,215 174.5,211C 220.569,204.232 239.735,177.732 232,131.5C 229.454,123.405 225.621,116.071 220.5,109.5C 223.556,98.2957 223.056,87.2957 219,76.5C 214.844,75.2849 210.678,75.4516 206.5,77C 198.059,80.3865 190.059,84.5531 182.5,89.5C 160.836,84.1887 139.17,84.1887 117.5,89.5C 106.811,81.3283 94.8115,76.8283 81.5,76C 78.8296,81.85 77.4962,88.0167 77.5,94.5C 78.0787,100.203 78.5787,105.87 79,111.5C 65.8306,129.457 62.8306,149.124 70,170.5C 74.9749,188.142 86.1416,199.976 103.5,206C 108.7,207.74 114.034,208.907 119.5,209.5 Z"/></g>
<g><path style="opacity:1" fill="#505050" d="M 119.5,209.5 C 121.924,209.192 124.257,209.526 126.5,210.5C 126.376,211.107 126.043,211.44 125.5,211.5C 123.5,210.833 121.5,210.167 119.5,209.5 Z"/></g>
</svg>
