<svg xmlns="http://www.w3.org/2000/svg" width="256" height="256" style="shape-rendering:geometricPrecision;text-rendering:geometricPrecision;image-rendering:optimizeQuality;fill-rule:evenodd;clip-rule:evenodd"><path style="opacity:.035" d="M62.5 5.5c43.335-.167 86.668 0 130 .5 21.158 1.158 32.325 12.325 33.5 33.5.667 59.333.667 118.667 0 178-1.171 21.171-12.337 32.337-33.5 33.5-43.333.667-86.667.667-130 0-20.698-1.032-31.865-11.865-33.5-32.5-.667-60-.667-120 0-180 1.81-20.644 12.976-31.644 33.5-33z"/><path style="opacity:.999" fill="#c1c1c1" d="M208.5 20.5c.131.876-.202 1.543-1 2-5.245-2.895-10.912-4.395-17-4.5-42-.667-84-.667-126 0a116.244 116.244 0 0 0-13 2 15.83 15.83 0 0 0-5.5 3.5 2.428 2.428 0 0 1-.5-2c3.611-3.268 7.945-5.101 13-5.5 46-.667 92-.667 138 0 4.462.43 8.462 1.93 12 4.5z"/><path style="opacity:.999" fill="#b7b7b7" d="M208.5 20.5c3.972 3.713 6.138 8.38 6.5 14 .5 7.326.666 14.66.5 22h-15c.284 1.915-.049 3.581-1 5 .166-8.673 0-17.34-.5-26-2.408-3.12-5.574-4.453-9.5-4 .163-3.44-1.504-5.44-5-6-.886-.825-1.219-1.825-1-3a19.524 19.524 0 0 1-7.5-1A1725.558 1725.558 0 0 1 83.5 26a97.758 97.758 0 0 0-16 2c-1.824.66-3.157 1.827-4 3.5-3.117.142-5.617 1.476-7.5 4-.5 8.66-.666 17.327-.5 26-.951-1.419-1.285-3.085-1-5h-15a106.455 106.455 0 0 1 2.5-30 28.917 28.917 0 0 1 3.5-5 2.428 2.428 0 0 0 .5 2 15.83 15.83 0 0 1 5.5-3.5 116.244 116.244 0 0 1 13-2c42-.667 84-.667 126 0 6.088.105 11.755 1.605 17 4.5.798-.457 1.131-1.124 1-2z"/><path style="opacity:1" fill="#adadad" d="M189.5 31.5h-1c-1.246-2.401-3.246-3.901-6-4.5-37.04-.461-74.04.539-111 3-1.952.366-3.618 1.2-5 2.5-.709-.904-1.709-1.237-3-1 .843-1.673 2.176-2.84 4-3.5a97.758 97.758 0 0 1 16-2c30.92-.675 61.753-2.175 92.5-4.5a19.524 19.524 0 0 0 7.5 1c-.219 1.175.114 2.175 1 3 3.496.56 5.163 2.56 5 6z"/><path style="opacity:1" fill="#e2e2e2" d="M188.5 31.5a20.691 20.691 0 0 1 1 5 1645.586 1645.586 0 0 0-115-3.5c-6.09 3.735-8.757 9.235-8 16.5a11.383 11.383 0 0 1-2.5 2c-.21-1.558-.71-2.892-1.5-4-.165-3.35.002-6.683.5-10 .697-2.084 1.864-3.751 3.5-5 1.382-1.3 3.048-2.134 5-2.5 36.96-2.461 73.96-3.461 111-3 2.754.599 4.754 2.099 6 4.5z"/><path style="opacity:1" fill="#898989" d="M63.5 31.5c1.291-.237 2.291.096 3 1-1.636 1.249-2.803 2.916-3.5 5a50.441 50.441 0 0 0-.5 10c.407 5.661.74 11.328 1 17-2.31.825-4.31 2.158-6 4-1.663-1.939-2.33-4.272-2-7-.166-8.673 0-17.34.5-26 1.883-2.524 4.383-3.858 7.5-4z"/><path style="opacity:1" fill="#eaeaea" d="M189.5 38.5c3.345 1.18 5.511 3.513 6.5 7a145.05 145.05 0 0 1 .5 17c-.402 2.977-1.402 5.643-3 8 2.772-10.824-.561-18.99-10-24.5a2142.13 2142.13 0 0 0-113 .5c-1.332-5.502.668-9.336 6-11.5 37.721-.246 75.387.92 113 3.5z"/><path style="opacity:1" fill="#878787" d="M188.5 31.5h1c3.926-.453 7.092.88 9.5 4 .5 8.66.666 17.327.5 26 .065 2.972-.769 5.638-2.5 8a24.935 24.935 0 0 1-.5-7 145.05 145.05 0 0 0-.5-17c-.989-3.487-3.155-5.82-6.5-7v-2a20.691 20.691 0 0 0-1-5z"/><path style="opacity:1" fill="#d9d9d9" d="M189.5 36.5v2a1507.048 1507.048 0 0 0-113-3.5c-5.332 2.164-7.332 5.998-6 11.5a2142.13 2142.13 0 0 1 113-.5c9.439 5.51 12.772 13.676 10 24.5-.511-4.582-1.178-7.916-2-10-.129-5.078-2.462-8.911-7-11.5a892.324 892.324 0 0 0-58-1.5l-52 .5c-7.717 1.22-11.05 5.72-10 13.5a5466.328 5466.328 0 0 0 95-7.5c15.531-4.755 24.197.745 26 16.5h6c-2.448.973-5.115 1.306-8 1 .354-2.267.021-3.6-1-4-1.205-7.862-5.871-11.862-14-12a36107.61 36107.61 0 0 0-105 9 656.397 656.397 0 0 0-1-17c.79 1.108 1.29 2.442 1.5 4a11.383 11.383 0 0 0 2.5-2c-.757-7.265 1.91-12.765 8-16.5 38.375-.174 76.708.993 115 3.5z"/><path style="opacity:1" fill="#f6f6f6" d="M191.5 60.5v10h-6c-1.803-15.755-10.469-21.255-26-16.5a5466.328 5466.328 0 0 1-95 7.5c-1.05-7.78 2.283-12.28 10-13.5l52-.5a892.324 892.324 0 0 1 58 1.5c4.538 2.589 6.871 6.422 7 11.5z"/><path style="opacity:1" fill="silver" d="M39.5 56.5h15c-.285 1.915.049 3.581 1 5-.33 2.728.337 5.061 2 7 .847 1.466 2.18 2.3 4 2.5 40.332.5 80.665.667 121 .5v-4c1.021.4 1.354 1.733 1 4 2.885.306 5.552-.027 8-1v-10c.822 2.084 1.489 5.418 2 10 1.598-2.357 2.598-5.023 3-8-.163 2.357.003 4.69.5 7 1.731-2.362 2.565-5.028 2.5-8 .951-1.419 1.284-3.085 1-5h15v41h-176v-41z"/><path style="opacity:1" fill="#fefefe" d="M182.5 67.5v4c-40.335.167-80.668 0-121-.5-1.82-.2-3.153-1.034-4-2.5 1.69-1.842 3.69-3.175 6-4 34.989-3.05 69.989-6.05 105-9 8.129.138 12.795 4.138 14 12z"/><path style="opacity:1" fill="#c4c4c4" d="M39.5 97.5h176v40c-24.172-.331-48.172.002-72 1-6.675-.166-13.342 0-20 .5a11.105 11.105 0 0 1 3 4.5c-.838.342-1.172 1.008-1 2a16.635 16.635 0 0 0-5-6c1.879.107 2.212-.393 1-1.5-27.331-.5-54.665-.667-82-.5v-40z"/><path style="opacity:1" fill="#cacaca" d="M39.5 137.5c27.335-.167 54.669 0 82 .5 1.212 1.107.879 1.607-1 1.5a32.462 32.462 0 0 0-8 .5 48.932 48.932 0 0 0-6.5 9.5c-1.301 1.902-1.968 3.902-2 6l13 8a191.884 191.884 0 0 0 9.5-16 43.836 43.836 0 0 1-1-2c-.172-.992.162-1.658 1-2 2.946 3.716 5.279 7.882 7 12.5-.32 1.653-1.32 2.653-3 3a43.233 43.233 0 0 0 16-.5c2.767-4.2 4.934-8.534 6.5-13-1.133 1.711-2.633 2.211-4.5 1.5a36.427 36.427 0 0 1-5-8.5 1296.178 1296.178 0 0 1 72-1v47c-18.743-.32-37.41.014-56 1-6.692-.064-13.692-.064-21 0a12.93 12.93 0 0 0-.5-5 315.024 315.024 0 0 1-3.5 5c-3-1.333-6-1.333-9 0h-29a827.548 827.548 0 0 0-57-1v-47z"/><path style="opacity:1" fill="#2c8622" d="M143.5 138.5a36.427 36.427 0 0 0 5 8.5c1.867.711 3.367.211 4.5-1.5-1.566 4.466-3.733 8.8-6.5 13a43.233 43.233 0 0 1-16 .5c1.68-.347 2.68-1.347 3-3-1.721-4.618-4.054-8.784-7-12.5a11.105 11.105 0 0 0-3-4.5c6.658-.5 13.325-.666 20-.5z"/><path style="opacity:1" fill="#2c8622" d="M120.5 139.5a16.635 16.635 0 0 1 5 6c.304.65.637 1.317 1 2a191.884 191.884 0 0 1-9.5 16l-13-8c.032-2.098.699-4.098 2-6a48.932 48.932 0 0 1 6.5-9.5 32.462 32.462 0 0 1 8-.5z"/><path style="opacity:1" fill="#2d8623" d="M154.5 159.5c4.023 4.709 7.023 10.042 9 16-1.815 7.575-6.481 9.908-14 7l-8-14a85.603 85.603 0 0 1 13-9z"/><path style="opacity:1" fill="#308726" d="M91.5 163.5c5.513-1.316 11.18-1.316 17 0a228.562 228.562 0 0 1 7 12.5c-1.547.333-2.88-.167-4-1.5a24.834 24.834 0 0 0-5 8c-8.016 3.28-12.683.78-14-7.5.759-3.19 2.092-6.19 4-9a19.17 19.17 0 0 0-5-2.5z"/><path style="opacity:1" fill="#2e8724" d="M159.5 185.5a246.356 246.356 0 0 1-10 16.5 60.931 60.931 0 0 1-11 .5 12.93 12.93 0 0 1-.5 5 47.28 47.28 0 0 1-7.5-14l4-8c1.144-1.6 2.311-3.267 3.5-5a12.93 12.93 0 0 1 .5 5c7.308-.064 14.308-.064 21 0z"/><path style="opacity:1" fill="#d2d2d2" d="M39.5 184.5c19.076-.32 38.076.013 57 1a139.027 139.027 0 0 0 10 16.5c6.325.5 12.658.666 19 .5v-17c3-1.333 6-1.333 9 0l-4 8a47.28 47.28 0 0 0 7.5 14 12.93 12.93 0 0 0 .5-5 60.931 60.931 0 0 0 11-.5 246.356 246.356 0 0 0 10-16.5 799.362 799.362 0 0 1 56-1v30c-1.577 3.742-2.744 7.742-3.5 12-3.986 7.023-10.152 10.523-18.5 10.5a4420.29 4420.29 0 0 1-133 0c-8.633-.305-14.967-4.139-19-11.5-.81-1.792-1.31-3.792-1.5-6a612.94 612.94 0 0 1-.5-35z"/><path style="opacity:1" fill="#2b8621" d="M96.5 185.5h29v17c-6.342.166-12.675 0-19-.5a139.027 139.027 0 0 1-10-16.5z"/><path style="opacity:.996" fill="#a8a8a8" d="M215.5 214.5c.829 13.979-5.504 22.146-19 24.5-46 .667-92 .667-138 0-4.81-.491-9.144-2.158-13-5-2.282-2.397-3.616-5.231-4-8.5 4.033 7.361 10.367 11.195 19 11.5 44.333.667 88.667.667 133 0 8.348.023 14.514-3.477 18.5-10.5.756-4.258 1.923-8.258 3.5-12z"/></svg>